<?xml version="1.0" encoding="utf-8"?>
<!-- Generator: Adobe Illustrator 24.1.2, SVG Export Plug-In . SVG Version: 6.00 Build 0)  -->
<svg version="1.1" id="Layer_1" xmlns="http://www.w3.org/2000/svg" xmlns:xlink="http://www.w3.org/1999/xlink" x="0px" y="0px"
	 viewBox="0 0 97.4 97.4" style="enable-background:new 0 0 97.4 97.4;" xml:space="preserve">
<style type="text/css">
	.st0{fill:#0088CE;}
</style>
<g>
	<path class="st0" d="M39.3,50.3c1,0,1.8-0.8,1.8-1.8l0,0c0-1-0.8-1.8-1.8-1.8l0,0c-7.6-0.8-13-7.3-12.2-14.6
		c0.5-6.5,5.7-11.7,12.2-12.2c1,0,1.8-0.5,2.1-1.6c0-1-0.5-1.8-1.6-2.1c-0.3,0-0.3,0-0.5,0c-9.4,0.3-16.9,8.3-16.4,17.7
		C23.4,43,30.5,50,39.3,50.3L39.3,50.3z"/>
	<path class="st0" d="M57.8,46.9c-1,0-1.8,0.8-1.8,1.8l0,0c0,1,0.8,1.8,1.8,1.8l0,0c7.6,0,13.5,6,13.5,13.5s-6,13.5-13.5,13.5
		c-1,0-1.8,0.5-2.1,1.6c0,1,0.5,1.8,1.6,2.1c0.3,0,0.3,0,0.5,0c9.4,0,17.2-7.8,17.2-17.2S67.4,46.9,57.8,46.9L57.8,46.9z"/>
	<path class="st0" d="M57.8,40.6c0.5,0,1-0.3,1.3-0.5l12.2-12.2c0.8-0.5,0.8-1.8,0.3-2.3c0,0,0,0-0.3-0.3c-0.5-0.8-1.8-0.8-2.3-0.3
		c0,0,0,0-0.3,0.3L56.5,37.5c-0.8,0.8-0.8,1.8,0,2.6C56.8,40.4,57.3,40.6,57.8,40.6L57.8,40.6z"/>
	<path class="st0" d="M58.6,65.4c1,0,1.6-1,1.6-2.1c0-0.8-0.8-1.6-1.6-1.6h-8.1v-43c0-1-0.8-1.8-1.8-1.8l0,0c-1,0-1.8,0.8-1.8,1.8
		l0,0V62H27.3c-1,0-1.6,1-1.6,2.1c0,0.8,0.8,1.6,1.6,1.6h19.5v13.8c0,1,0.8,1.8,1.8,1.8l0,0c1,0,1.8-0.8,1.8-1.8l0,0V65.6h8.1
		C58.6,65.6,58.6,65.4,58.6,65.4z"/>
	<path class="st0" d="M48.7,0C21.9,0,0,21.9,0,48.7s21.9,48.7,48.7,48.7s48.7-21.9,48.7-48.7S75.5,0,48.7,0z M93.8,48.7
		c0,24.7-20.1,45.1-45.1,45.1S3.6,73.7,3.6,48.7S23.7,3.6,48.7,3.6l0,0C73.4,3.6,93.8,23.7,93.8,48.7z"/>
</g>
</svg>
