<svg enable-background="new 0 0 25 25" viewBox="0 0 25 25" xmlns="http://www.w3.org/2000/svg" xmlns:xlink="http://www.w3.org/1999/xlink"><linearGradient id="a" gradientTransform="matrix(25 0 0 -25 13872 12626)" gradientUnits="userSpaceOnUse" x1="-553.8826" x2="-554.8826" y1="505.0425" y2="504.0425"><stop offset="0" stop-color="#21d4fd"/><stop offset="1" stop-color="#b721ff"/></linearGradient><path clip-rule="evenodd" d="m12.5 0c6.9 0 12.5 5.6 12.5 12.5 0 2.7-.8 5.1-2.2 7.1-.1.1-.3.2-.4.1 0 0-.1-.1-.1-.1-1.5-2.8-3.7-7.1-6.7-12.8-.4-.7-1.1-1.2-1.9-1.2h-3.5c-.1 0-.2 0-.3.1-.3.2-.4.5-.2.8 3.8 7.4 6.7 12.9 8.7 16.6.1.2 0 .4-.2.6-1.7.9-3.6 1.3-5.6 1.3s-3.9-.5-5.5-1.3c-.2-.1-.3-.4-.2-.6 1.1-2.2 2.8-5.5 5.1-9.8.1-.3 0-.6-.2-.7-.1 0-.2-.1-.3-.1h-3.6-.1c-.8 0-1.5.5-1.8 1.2-1.4 2.7-2.4 4.7-3.1 6-.1.2-.3.2-.4.1 0 0-.1-.1-.1-.1-1.4-2-2.3-4.5-2.3-7.2-.1-6.9 5.5-12.5 12.4-12.5z" fill="url(#a)" fill-rule="evenodd"/></svg>