<?xml version="1.0" encoding="utf-8"?>
<!-- Generator: Adobe Illustrator 23.0.6, SVG Export Plug-In . SVG Version: 6.00 Build 0)  -->
<svg version="1.1" id="Layer_1" xmlns="http://www.w3.org/2000/svg" xmlns:xlink="http://www.w3.org/1999/xlink" x="0px" y="0px"
	 viewBox="0 0 25 25" style="enable-background:new 0 0 25 25;" xml:space="preserve">
<style type="text/css">
	.st0{fill-rule:evenodd;clip-rule:evenodd;fill:url(#Combined-Shape_1_);}
</style>
<linearGradient id="Combined-Shape_1_" gradientUnits="userSpaceOnUse" x1="-553.8826" y1="505.0425" x2="-554.8826" y2="504.0425" gradientTransform="matrix(25 0 0 -25 13872 12626)">
	<stop  offset="0" style="stop-color:#21D4FD"/>
	<stop  offset="1" style="stop-color:#B721FF"/>
</linearGradient>
<path id="Combined-Shape" class="st0" d="M12.5,0C19.4,0,25,5.6,25,12.5c0,2.7-0.8,5.1-2.2,7.1c0,0,0,0,0,0
	c-0.1,0.1-0.3,0.2-0.4,0.1c0,0-0.1-0.1-0.1-0.1l0,0c-1.5-2.8-3.7-7.1-6.7-12.8c-0.4-0.7-1.1-1.2-1.9-1.2h-3.5c-0.1,0-0.2,0-0.3,0.1
	C9.6,5.9,9.5,6.2,9.7,6.5c3.8,7.4,6.7,12.9,8.7,16.6c0,0,0,0,0,0c0.1,0.2,0,0.4-0.2,0.6c0,0,0,0,0,0l0,0c-1.7,0.9-3.6,1.3-5.6,1.3
	c-2,0-3.9-0.5-5.5-1.3l0,0c-0.2-0.1-0.3-0.4-0.2-0.6c0,0,0,0,0,0c0,0,0,0,0,0c1.1-2.2,2.8-5.5,5.1-9.8l0,0c0.1-0.3,0-0.6-0.2-0.7
	c-0.1,0-0.2-0.1-0.3-0.1H7.9l-0.1,0c-0.8,0-1.5,0.5-1.8,1.2c-1.4,2.7-2.4,4.7-3.1,6l0,0c-0.1,0.2-0.3,0.2-0.4,0.1
	c0,0-0.1-0.1-0.1-0.1c0,0,0,0,0,0c-1.4-2-2.3-4.5-2.3-7.2C0,5.6,5.6,0,12.5,0z"/>
</svg>
