<svg enable-background="new 0 0 49 41.4" viewBox="0 0 49 41.4" xmlns="http://www.w3.org/2000/svg"><g fill="#e65f55"><path d="m29.9 29.7c3-2.9 3-7.7 0-10.7-3-2.9-7.8-2.9-10.7 0-3 3-3 7.7 0 10.7 2.9 3 7.7 3 10.7 0zm-8.4-2.3c-1.7-1.7-1.7-4.3 0-5.9 1.7-1.7 4.4-1.7 6 0 1.7 1.7 1.7 4.3 0 5.9s-4.3 1.6-6 0z"/><path d="m14.8 18.9c.2-.4.4-.7.7-1l-.1-.1-2.4-2.3-1.1-1.1-2.2-2.2-2.4 2.4 3.8 3.8c-1.7 3.8-1.7 8.2 0 12l-3.9 3.9 2.4 2.4 3.4-3.3 2.4-2.4c-.3-.3-.4-.7-.7-1-1.9-3.5-1.9-7.7.1-11.1z"/><path d="m33.4 35.8-2.4-2.4c-.3.3-.7.4-1 .7-3.4 1.9-7.6 1.9-11 0-.4-.2-.7-.4-1-.7l-2.4 2.4-3.3 3.3 2.4 2.4 3.9-3.9c3.8 1.7 8.2 1.7 12 0l3.8 3.8 2.4-2.4z"/><path d="m37.8 30.4c1.7-3.8 1.7-8.1 0-11.9l3.9-3.9-2.4-2.4-3.3 3.3-2.4 2.4c.3.3.4.7.7 1 1.9 3.4 1.9 7.5 0 10.9-.2.4-.4.7-.7 1l2.4 2.4 3.3 3.3 2.4-2.3z"/><path d="m15.6 13 2.3 2.3.1.1c.3-.3.7-.4 1-.7 3.4-1.9 7.6-1.9 11 0 .4.2.7.4 1 .7l2.4-2.4 3.3-3.3-2.3-2.4-3.9 3.9c-3.8-1.7-8.2-1.7-12 0l-3.8-3.8-2.4 2.4 2.2 2.2z"/><path d="m0 24.4c0 1.8 1.4 3.2 3.2 3.2s3.2-1.4 3.2-3.2-1.4-3.2-3.2-3.2-3.2 1.5-3.2 3.2z"/><path d="m42.6 24.4c0 1.8 1.4 3.2 3.2 3.2s3.2-1.4 3.2-3.2-1.4-3.2-3.2-3.2-3.2 1.4-3.2 3.2z"/><path d="m21.3 3.2c0 1.8 1.4 3.2 3.2 3.2s3.2-1.4 3.2-3.2-1.4-3.2-3.2-3.2-3.2 1.4-3.2 3.2z"/></g></svg>