<?xml version="1.0" encoding="utf-8"?>
<!-- Generator: Adobe Illustrator 23.0.6, SVG Export Plug-In . SVG Version: 6.00 Build 0)  -->
<svg version="1.1" id="Layer_1" xmlns="http://www.w3.org/2000/svg" xmlns:xlink="http://www.w3.org/1999/xlink" x="0px" y="0px"
	 viewBox="0 0 49 41.4" style="enable-background:new 0 0 49 41.4;" xml:space="preserve">
<style type="text/css">
	.st0{fill:#E65F55;}
</style>
<path class="st0" d="M29.9,29.7c3-2.9,3-7.7,0-10.7c-3-2.9-7.8-2.9-10.7,0c-3,3-3,7.7,0,10.7C22.1,32.7,26.9,32.7,29.9,29.7z
	 M21.5,27.4c-1.7-1.7-1.7-4.3,0-5.9c1.7-1.7,4.4-1.7,6,0c1.7,1.7,1.7,4.3,0,5.9C25.8,29,23.2,29,21.5,27.4z"/>
<path class="st0" d="M14.8,18.9c0.2-0.4,0.4-0.7,0.7-1l-0.1-0.1L13,15.5l-1.1-1.1l-2.2-2.2l-2.4,2.4l3.8,3.8c-1.7,3.8-1.7,8.2,0,12
	l-3.9,3.9l2.4,2.4l3.4-3.3l2.4-2.4c-0.3-0.3-0.4-0.7-0.7-1C12.8,26.5,12.8,22.3,14.8,18.9z"/>
<path class="st0" d="M33.4,35.8L31,33.4c-0.3,0.3-0.7,0.4-1,0.7c-3.4,1.9-7.6,1.9-11,0c-0.4-0.2-0.7-0.4-1-0.7l-2.4,2.4l-3.3,3.3
	l2.4,2.4l3.9-3.9c3.8,1.7,8.2,1.7,12,0l3.8,3.8l2.4-2.4L33.4,35.8z"/>
<path class="st0" d="M37.8,30.4c1.7-3.8,1.7-8.1,0-11.9l3.9-3.9l-2.4-2.4L36,15.5l-2.4,2.4c0.3,0.3,0.4,0.7,0.7,1
	c1.9,3.4,1.9,7.5,0,10.9c-0.2,0.4-0.4,0.7-0.7,1l2.4,2.4l3.3,3.3l2.4-2.3L37.8,30.4z"/>
<path class="st0" d="M15.6,13l2.3,2.3l0.1,0.1c0.3-0.3,0.7-0.4,1-0.7c3.4-1.9,7.6-1.9,11,0c0.4,0.2,0.7,0.4,1,0.7l2.4-2.4l3.3-3.3
	l-2.3-2.4l-3.9,3.9c-3.8-1.7-8.2-1.7-12,0l-3.8-3.8l-2.4,2.4l2.2,2.2L15.6,13z"/>
<path class="st0" d="M0,24.4c0,1.8,1.4,3.2,3.2,3.2s3.2-1.4,3.2-3.2c0-1.8-1.4-3.2-3.2-3.2S0,22.7,0,24.4z"/>
<path class="st0" d="M42.6,24.4c0,1.8,1.4,3.2,3.2,3.2c1.8,0,3.2-1.4,3.2-3.2s-1.4-3.2-3.2-3.2C44,21.2,42.6,22.6,42.6,24.4z"/>
<path class="st0" d="M21.3,3.2c0,1.8,1.4,3.2,3.2,3.2s3.2-1.4,3.2-3.2S26.3,0,24.5,0S21.3,1.4,21.3,3.2z"/>
</svg>
