<?xml version="1.0" encoding="utf-8"?>
<!-- Generator: Adobe Illustrator 23.0.0, SVG Export Plug-In . SVG Version: 6.00 Build 0)  -->
<svg version="1.1" id="Layer_1" xmlns="http://www.w3.org/2000/svg" xmlns:xlink="http://www.w3.org/1999/xlink" x="0px" y="0px"
	 viewBox="0 0 359.2 115.1" style="enable-background:new 0 0 359.2 115.1;" xml:space="preserve">
<g>
	<path d="M95.9,0H19.2C8.8,0,0.2,8.4,0,18.8c0,0.1,0,0.3,0,0.4v2.7v14.3c0,3.8,3.1,6.9,6.9,6.9h0.6c3.8,0,6.9-3.1,6.9-6.9V22.1v-0.1
		h0c0,0,0,0,0,0v-0.6c0-3.8,3.1-6.9,6.9-6.9h0.8h71h0.8c3.8,0,6.9,3.1,6.9,6.9v0.6c0,3.8-3.1,6.9-6.9,6.9H35.7
		c-3.8,0-6.9,3.1-6.9,6.9v0.6c0,3.8,3.1,6.9,6.9,6.9h58.1c3.8,0,6.9,3.1,6.9,6.9v15v28c0,4.2-3.4,7.7-7.7,7.7h-71
		c-4.2,0-7.7-3.4-7.7-7.7V65v-0.6c0-3.8-3.1-6.9-6.9-6.9H6.9c-3.8,0-6.9,3.1-6.9,6.9v12.3v17.1v2.1c0,10.6,8.6,19.2,19.2,19.2h76.7
		c10.6,0,19.2-8.6,19.2-19.2V19.2C115.1,8.6,106.5,0,95.9,0"/>
	<path d="M28.8,62.4v19.2c0,2.6,2.1,4.8,4.8,4.8h48c2.6,0,4.8-2.1,4.8-4.8V62.4c0-2.6-2.1-4.8-4.8-4.8h-48
		C30.9,57.6,28.8,59.7,28.8,62.4"/>
</g>
<g>
	<path d="M177.3,47.6h-3.1v4.2h3v10.6c0,4.3,1.9,6.1,7.1,6.1c1.1,0,2.1-0.1,2.5-0.2v-4.1c-0.2,0-0.7,0-1.1,0c-2.1,0-3-0.6-3-2.7
		v-9.8h4.1v-4.2h-4.1v-5.2h-5.4V47.6z M165.3,68.4h5.6V39.9h-5.6V68.4z M152.6,64.7c-1.7,0-3.2-0.9-3.2-2.8c0-1.5,1.1-2.6,3.3-2.6
		h3.7v2.1C156.4,63.3,154.7,64.7,152.6,64.7 M156.4,65.7h0.2v2.6h5.2V54.2c0-5.2-3.6-7.2-8.6-7.2c-6.3,0-8.5,3.3-8.7,6.8h5.2
		c0.1-1.6,1.2-2.6,3.3-2.6c2,0,3.2,0.9,3.2,2.8v2h-5.1c-4.9,0-7.5,2.5-7.5,6.3c0,4,2.8,6.4,6.9,6.4
		C153.8,68.7,155.6,67.2,156.4,65.7"/>
	<path d="M352.8,68.4h6.2l-6.7-10.6l6.8-10.4h-6.1l-3.9,6.9h-0.2l-3.8-6.9h-6.4l6.7,10.6l-6.5,10.5h5.9l3.9-7h0.2L352.8,68.4z
		 M329.7,42c0,1.6,1.2,2.7,3.2,2.7c2,0,3.2-1.1,3.2-2.7c0-1.6-1.2-2.7-3.2-2.7C330.9,39.3,329.7,40.4,329.7,42 M330.1,68.4h5.6v-21
		h-5.6V68.4z M310.1,53.6c0,4.1,3,5.4,6.8,6.2c2.7,0.5,5.2,0.8,5.2,2.7c0,1.4-1,2.5-3.5,2.5c-2.1,0-3.3-1.1-3.5-2.5h-5.4
		c0,3.7,3.2,6.3,8.7,6.3c5.8,0,9.1-2.6,9.1-6.9c0-3.8-2.7-5.3-6.6-6c-2.3-0.4-5.5-0.7-5.5-2.8c0-1.5,1.2-2.4,3.2-2.4
		c2.4,0,3.2,1.4,3.3,2.7h4.9c0-4-3.2-6.4-8.1-6.4C314.1,46.9,310.1,48.8,310.1,53.6 M299.9,47.3H294l-4.3,16.3h-0.2l-4.2-16.3h-6.1
		l7.2,21l-0.2,0.7c-0.3,1.7-1.2,2.7-3.8,2.7c-0.6,0-1.4-0.1-1.7-0.1v4c0.6,0.1,1.8,0.2,3,0.2c5.5,0,7.6-2.9,9-6.7l0.5-1.4
		C293.2,67.4,299.9,47.3,299.9,47.3 M267.1,47.6H264v4.2h3v10.6c0,4.3,1.9,6.1,7.1,6.1c1.1,0,2.1-0.1,2.5-0.2v-4.1
		c-0.2,0-0.7,0-1.1,0c-2.1,0-3-0.6-3-2.7v-9.8h4.1v-4.2h-4.1v-5.2h-5.4V47.6z M249.3,68.4h5.7V56.5c0-2.8,1.2-4.8,4.5-4.8
		c0.8,0,1.7,0.1,2.1,0.2v-4.8c-0.4-0.1-0.9-0.2-1.7-0.2c-3.2,0-4.4,1.9-4.9,3.2h-0.2v-2.9h-5.6V68.4z M239.4,42
		c0,1.6,1.2,2.7,3.2,2.7c2,0,3.2-1.1,3.2-2.7c0-1.6-1.2-2.7-3.2-2.7C240.7,39.3,239.4,40.4,239.4,42 M239.9,68.4h5.6v-21h-5.6V68.4z
		 M216.9,68.4h5.6v-12c0-3.1,1.7-4.6,4-4.6c2.3,0,3.9,1.5,3.9,4.6v12h5.6V55c0-5-2.9-8-7.4-8c-3.5,0-5.3,2-5.9,3.4h-0.3V39.9h-5.6
		V68.4z M204.2,47.6H201v4.2h3v10.6c0,4.3,1.9,6.1,7.1,6.1c1.1,0,2.1-0.1,2.5-0.2v-4.1c-0.2,0-0.7,0-1.1,0c-2.1,0-3-0.6-3-2.7v-9.8
		h4.1v-4.2h-4.1v-5.2h-5.4V47.6z"/>
</g>
</svg>
