<svg enable-background="new 0 0 359.2 115.1" viewBox="0 0 359.2 115.1" xmlns="http://www.w3.org/2000/svg"><path d="m95.9 0h-76.7c-10.4 0-19 8.4-19.2 18.8v.4 2.7 14.3c0 3.8 3.1 6.9 6.9 6.9h.6c3.8 0 6.9-3.1 6.9-6.9v-14.1-.1-.6c0-3.8 3.1-6.9 6.9-6.9h.8 71 .8c3.8 0 6.9 3.1 6.9 6.9v.6c0 3.8-3.1 6.9-6.9 6.9h-58.2c-3.8 0-6.9 3.1-6.9 6.9v.6c0 3.8 3.1 6.9 6.9 6.9h58.1c3.8 0 6.9 3.1 6.9 6.9v15 28c0 4.2-3.4 7.7-7.7 7.7h-71c-4.2 0-7.7-3.4-7.7-7.7v-28.2-.6c0-3.8-3.1-6.9-6.9-6.9h-.5c-3.8 0-6.9 3.1-6.9 6.9v12.3 17.1 2.1c0 10.6 8.6 19.2 19.2 19.2h76.7c10.6 0 19.2-8.6 19.2-19.2v-76.7c0-10.6-8.6-19.2-19.2-19.2"/><path d="m28.8 62.4v19.2c0 2.6 2.1 4.8 4.8 4.8h48c2.6 0 4.8-2.1 4.8-4.8v-19.2c0-2.6-2.1-4.8-4.8-4.8h-48c-2.7 0-4.8 2.1-4.8 4.8"/><path d="m177.3 47.6h-3.1v4.2h3v10.6c0 4.3 1.9 6.1 7.1 6.1 1.1 0 2.1-.1 2.5-.2v-4.1c-.2 0-.7 0-1.1 0-2.1 0-3-.6-3-2.7v-9.8h4.1v-4.2h-4.1v-5.2h-5.4zm-12 20.8h5.6v-28.5h-5.6zm-12.7-3.7c-1.7 0-3.2-.9-3.2-2.8 0-1.5 1.1-2.6 3.3-2.6h3.7v2.1c0 1.9-1.7 3.3-3.8 3.3m3.8 1h.2v2.6h5.2v-14.1c0-5.2-3.6-7.2-8.6-7.2-6.3 0-8.5 3.3-8.7 6.8h5.2c.1-1.6 1.2-2.6 3.3-2.6 2 0 3.2.9 3.2 2.8v2h-5.1c-4.9 0-7.5 2.5-7.5 6.3 0 4 2.8 6.4 6.9 6.4 3.3 0 5.1-1.5 5.9-3"/><path d="m352.8 68.4h6.2l-6.7-10.6 6.8-10.4h-6.1l-3.9 6.9h-.2l-3.8-6.9h-6.4l6.7 10.6-6.5 10.5h5.9l3.9-7h.2zm-23.1-26.4c0 1.6 1.2 2.7 3.2 2.7s3.2-1.1 3.2-2.7-1.2-2.7-3.2-2.7-3.2 1.1-3.2 2.7m.4 26.4h5.6v-21h-5.6zm-20-14.8c0 4.1 3 5.4 6.8 6.2 2.7.5 5.2.8 5.2 2.7 0 1.4-1 2.5-3.5 2.5-2.1 0-3.3-1.1-3.5-2.5h-5.4c0 3.7 3.2 6.3 8.7 6.3 5.8 0 9.1-2.6 9.1-6.9 0-3.8-2.7-5.3-6.6-6-2.3-.4-5.5-.7-5.5-2.8 0-1.5 1.2-2.4 3.2-2.4 2.4 0 3.2 1.4 3.3 2.7h4.9c0-4-3.2-6.4-8.1-6.4-4.6-.1-8.6 1.8-8.6 6.6m-10.2-6.3h-5.9l-4.3 16.3h-.2l-4.2-16.3h-6.1l7.2 21-.2.7c-.3 1.7-1.2 2.7-3.8 2.7-.6 0-1.4-.1-1.7-.1v4c.6.1 1.8.2 3 .2 5.5 0 7.6-2.9 9-6.7l.5-1.4c0-.3 6.7-20.4 6.7-20.4m-32.8.3h-3.1v4.2h3v10.6c0 4.3 1.9 6.1 7.1 6.1 1.1 0 2.1-.1 2.5-.2v-4.1c-.2 0-.7 0-1.1 0-2.1 0-3-.6-3-2.7v-9.8h4.1v-4.2h-4.1v-5.2h-5.4zm-17.8 20.8h5.7v-11.9c0-2.8 1.2-4.8 4.5-4.8.8 0 1.7.1 2.1.2v-4.8c-.4-.1-.9-.2-1.7-.2-3.2 0-4.4 1.9-4.9 3.2h-.2v-2.9h-5.6v21.2zm-9.9-26.4c0 1.6 1.2 2.7 3.2 2.7s3.2-1.1 3.2-2.7-1.2-2.7-3.2-2.7c-1.9 0-3.2 1.1-3.2 2.7m.5 26.4h5.6v-21h-5.6zm-23 0h5.6v-12c0-3.1 1.7-4.6 4-4.6s3.9 1.5 3.9 4.6v12h5.6v-13.4c0-5-2.9-8-7.4-8-3.5 0-5.3 2-5.9 3.4h-.3v-10.5h-5.6v28.5zm-12.7-20.8h-3.2v4.2h3v10.6c0 4.3 1.9 6.1 7.1 6.1 1.1 0 2.1-.1 2.5-.2v-4.1c-.2 0-.7 0-1.1 0-2.1 0-3-.6-3-2.7v-9.8h4.1v-4.2h-4.1v-5.2h-5.4v5.3z"/></svg>