<?xml version="1.0" encoding="utf-8"?>
<!-- Generator: Adobe Illustrator 23.0.0, SVG Export Plug-In . SVG Version: 6.00 Build 0)  -->
<svg version="1.1" id="Layer_1" xmlns="http://www.w3.org/2000/svg" xmlns:xlink="http://www.w3.org/1999/xlink" x="0px" y="0px"
	 viewBox="0 0 669.2 181.4" style="enable-background:new 0 0 669.2 181.4;" xml:space="preserve">
<style type="text/css">
	.st0{fill:#3C3B43;}
	.st1{fill:#F4C867;}
	.st2{fill:#C54A42;}
	.st3{fill:#CCA015;}
	.st4{fill:#E7584F;}
	.st5{fill:#0076C0;}
	.st6{fill:#009353;}
	.st7{fill:#8D5DA7;}
</style>
<g>
	<path id="a1_3_" class="st0" d="M540.7,85.4c0,0,4.6-2.1,8.2-2.8c13.5-2.8,18.8,0.1,19.3,10.1c-23.5,1.4-42.4,7.9-44.9,27.7
		c-2.6,21.1,10.2,26.3,28.3,26.3c21,0,31.6-1.6,31.6-1.6l5.9-48c3.7-30.3-12-37.6-32.6-35.1c-13.8,1.7-20.3,4.9-20.3,4.9
		C538.5,72,539.7,78.5,540.7,85.4z M564.2,129.2c0,0-21.6,5-20-8.2c1.5-12,22.4-11.5,22.4-11.5L564.2,129.2z"/>
	<path id="y1_6_" class="st0" d="M427.2,61.6l-7.6,62.6c-3.8,2.7-21.7,5.9-19.2-14.8l5.8-47.8h-21l-6.3,51.6
		c-4.2,34.1,24.9,37,38.1,31.4c-3,15.8-17.7,15.8-22.8,15.1l-2.1,17.5c21,2.2,42.8-7.1,47.2-43l8.9-72.5L427.2,61.6z"/>
	<path id="y1_5_" class="st0" d="M648.2,61.6l-7.6,62.6c-3.8,2.7-21.7,5.9-19.2-14.8l5.8-47.8h-21l-6.3,51.6
		c-4.2,34.1,24.9,37,38.1,31.4c-3,15.8-17.7,15.8-22.8,15.1l-2.1,17.5c21,2.2,42.8-7.1,47.2-43l8.9-72.5L648.2,61.6z"/>
	<path id="p_3_" class="st0" d="M461.1,61.8l-8.3,68.3c-1.7,13.7-3.5,27-12.1,39.5l18.8,8.4c10-9.6,12.5-32.8,12.5-32.8
		c38.3,9.4,45-25.1,47-41.3c1.7-13.7,4.1-41.7-27.1-42.3L461.1,61.8z M497.8,104.9c-3.4,27.5-20.2,21-23.4,19.5l5.2-42.8h8.1
		C497.9,82.1,499.5,90.9,497.8,104.9z"/>
	<path id="A_x5F_13_3_" class="st0" d="M287.8,146.8l-3.7-115.9h-23.8c-32.8,36-66.2,116.1-66.2,116.1l23.5-0.1l5.5-12
		c2-4.5,6-7.8,10.8-9l31.9-8l0.9,29h21.1V146.8z M237.8,104c8.1-14.9,18.4-35.1,26.1-46.9l1.3,40.6L237.8,104z"/>
	<path id="n_3_" class="st0" d="M361.9,146.7l6.2-51c2.4-19.4-3.2-34.2-28.9-34.2c-18.8,0-30,1.3-30,1.3L299,146.7h21l7.8-64.2
		c15.1-2.6,20.9,0.9,19,16.3l-5.9,48h21V146.7z"/>
	<polygon class="st1" points="114.7,35.9 89.9,141.2 154.9,76.1 	"/>
	<polygon class="st2" points="89.9,141.2 0,101 74.5,156.5 	"/>
	<polygon class="st3" points="105.2,125.8 114.7,35.9 89.9,141.2 	"/>
	<polygon class="st4" points="49.7,181.4 0,101 74.5,156.5 	"/>
	<polygon class="st5" points="25.1,76.2 72.1,105.2 90,11.2 	"/>
	<polygon class="st6" points="59.1,11.1 41.2,0 34.3,36 	"/>
	<polygon class="st7" points="105.2,156.5 134.3,174.5 145.4,116.3 	"/>
</g>
</svg>
