<svg enable-background="new 0 0 669.2 181.4" viewBox="0 0 669.2 181.4" xmlns="http://www.w3.org/2000/svg"><g fill="#3c3b43"><path d="m540.7 85.4s4.6-2.1 8.2-2.8c13.5-2.8 18.8.1 19.3 10.1-23.5 1.4-42.4 7.9-44.9 27.7-2.6 21.1 10.2 26.3 28.3 26.3 21 0 31.6-1.6 31.6-1.6l5.9-48c3.7-30.3-12-37.6-32.6-35.1-13.8 1.7-20.3 4.9-20.3 4.9 2.3 5.1 3.5 11.6 4.5 18.5zm23.5 43.8s-21.6 5-20-8.2c1.5-12 22.4-11.5 22.4-11.5z"/><path d="m427.2 61.6-7.6 62.6c-3.8 2.7-21.7 5.9-19.2-14.8l5.8-47.8h-21l-6.3 51.6c-4.2 34.1 24.9 37 38.1 31.4-3 15.8-17.7 15.8-22.8 15.1l-2.1 17.5c21 2.2 42.8-7.1 47.2-43l8.9-72.5z"/><path d="m648.2 61.6-7.6 62.6c-3.8 2.7-21.7 5.9-19.2-14.8l5.8-47.8h-21l-6.3 51.6c-4.2 34.1 24.9 37 38.1 31.4-3 15.8-17.7 15.8-22.8 15.1l-2.1 17.5c21 2.2 42.8-7.1 47.2-43l8.9-72.5z"/><path d="m461.1 61.8-8.3 68.3c-1.7 13.7-3.5 27-12.1 39.5l18.8 8.4c10-9.6 12.5-32.8 12.5-32.8 38.3 9.4 45-25.1 47-41.3 1.7-13.7 4.1-41.7-27.1-42.3zm36.7 43.1c-3.4 27.5-20.2 21-23.4 19.5l5.2-42.8h8.1c10.2.5 11.8 9.3 10.1 23.3z"/><path d="m287.8 146.8-3.7-115.9h-23.8c-32.8 36-66.2 116.1-66.2 116.1l23.5-.1 5.5-12c2-4.5 6-7.8 10.8-9l31.9-8 .9 29h21.1zm-50-42.8c8.1-14.9 18.4-35.1 26.1-46.9l1.3 40.6z"/><path d="m361.9 146.7 6.2-51c2.4-19.4-3.2-34.2-28.9-34.2-18.8 0-30 1.3-30 1.3l-10.2 83.9h21l7.8-64.2c15.1-2.6 20.9.9 19 16.3l-5.9 48h21z"/></g><path d="m114.7 35.9-24.8 105.3 65-65.1z" fill="#f4c867"/><path d="m89.9 141.2-89.9-40.2 74.5 55.5z" fill="#c54a42"/><path d="m105.2 125.8 9.5-89.9-24.8 105.3z" fill="#cca015"/><path d="m49.7 181.4-49.7-80.4 74.5 55.5z" fill="#e7584f"/><path d="m25.1 76.2 47 29 17.9-94z" fill="#0076c0"/><path d="m59.1 11.1-17.9-11.1-6.9 36z" fill="#009353"/><path d="m105.2 156.5 29.1 18 11.1-58.2z" fill="#8d5da7"/></svg>