<svg enable-background="new 0 0 200 100" viewBox="0 0 200 100" xmlns="http://www.w3.org/2000/svg"><path d="m9.2 91.4c-2.7 0-4.9-2.2-4.9-4.9v-73.1c0-2.7 2.2-4.9 4.9-4.9s4.9 2.2 4.9 4.9v73.1c0 2.8-2.2 4.9-4.9 4.9" fill="#cedc21"/><path d="m9.2 91.4c-1.8 0-3.6-1-4.4-2.8-1.2-2.4-.1-5.3 2.3-6.5l29.3-13.9-30.1-22.1c-2.2-1.6-2.6-4.6-1-6.8s4.6-2.6 6.8-1l36.6 27c1.4 1 2.1 2.7 2 4.4-.2 1.7-1.2 3.2-2.8 3.9l-36.6 17.4c-.7.3-1.4.4-2.1.4" fill="#51b13e"/><path d="m9.2 62.7c-1.5 0-3-.7-3.9-2-1.6-2.2-1.1-5.2 1-6.8l30.1-22.2-29.3-13.9c-2.4-1.2-3.5-4.1-2.3-6.5s4.1-3.4 6.5-2.3l36.6 17.4c1.5.7 2.6 2.2 2.8 3.9s-.6 3.4-2 4.4l-36.6 27c-.9.7-1.9 1-2.9 1" fill="#cedc21"/><path d="m14.1 39.7v20.6l13.9-10.3z" fill="#1e7a44"/><path d="m4.3 31.1h9.7v23.7h-9.7z" fill="#fff"/><path d="m14.1 13.4c0-2.7-2.2-4.9-4.9-4.9s-4.9 2.2-4.9 4.9v61.2h9.7z" fill="#cedc21"/><g fill="#1e7a44"><path d="m78.4 49.4c3.1.9 4.8 3.7 4.8 7.2 0 5.5-3.4 8.1-8 8.1h-10.4v-29.4h9.2c4.5 0 8 2.1 8 7.7 0 2.8-1.2 5.4-3.6 6.4m-4.3-.7c3.3 0 6-1.2 6-5.7 0-4.6-2.8-5.8-6.1-5.8h-7.2v11.5zm1 14.1c3.4 0 6.1-1.8 6.1-6.1 0-4.7-3.1-6.1-6.9-6.1h-7.5v12.3z"/><path d="m102.9 35.3v1.8h-8.1v27.6h-2v-27.6h-8.1v-1.8z"/><path d="m116.7 34.8c5 0 9.6 2.5 11 8.5h-1.9c-1.3-4.9-5.3-6.7-9.1-6.7-6.9 0-10.6 5.7-10.6 13.3 0 8.1 3.7 13.3 10.6 13.3 4.1 0 7.8-1.8 9.3-7.3h1.9c-1.3 6.3-6.2 9.2-11.2 9.2-7.9 0-12.6-5.8-12.6-15.2.1-8.9 5-15.1 12.6-15.1"/><path d="m142.7 35.3c5.1 0 8.8 3.3 8.8 9.8 0 6.1-3.7 9.7-8.8 9.7h-7.7v10h-2v-29.5zm0 17.5c3.7 0 6.8-2.4 6.8-7.8s-2.9-7.9-6.8-7.9h-7.7v15.7z"/><path d="m151.8 64.7v-.3l11.7-29.3h.9l11.6 29.3v.3h-2l-3.3-8.5h-13.4l-3.3 8.5zm12.2-26-6.1 15.7h12.1z"/><path d="m193.6 35.3h2.1v.3l-9.2 16.9v12.2h-2v-12.2l-9.3-17v-.2h2.2l4 7.5 4 7.7h.1l4.1-7.7z"/></g></svg>