<?xml version="1.0" encoding="utf-8"?>
<!-- Generator: Adobe Illustrator 23.0.0, SVG Export Plug-In . SVG Version: 6.00 Build 0)  -->
<svg version="1.1" id="Layer_1" xmlns="http://www.w3.org/2000/svg" xmlns:xlink="http://www.w3.org/1999/xlink" x="0px" y="0px"
	 viewBox="0 0 467 64" style="enable-background:new 0 0 467 64;" preserveAspectRatio="xMinYMid" xml:space="preserve">
<style type="text/css">
	.st0{fill:#1A80C3;}
	.st1{fill:#002F5E;}
</style>
<g>
	<path class="st0" d="M98.7,26v12h16.1C112.3,46.1,104.6,52,95.6,52C88.2,52,79.8,48,75,42c-2.2,3.8-4.6,7.2-7,10.3
		C75.2,59.5,85.8,64,95.6,64c17.8,0,32.4-14.3,32.4-32v-6H98.7z"/>
	<path class="st1" d="M99,0.2C98,0.1,97,0,95.9,0c-8.3,0-15.9,3.2-22.4,9.4c-5,4.8-9.5,11.3-13.6,19.9c-8.1,15-17.4,22.6-27.6,22.6
		C21.2,51.9,12.2,43,12.2,32c0-11,9-19.9,20.2-19.9c4,0,7.9,1.2,11.3,3.4l6.8-10C45.1,1.9,38.8,0,32.3,0C14.5,0,0,14.4,0,32
		c0,17.6,14.5,32,32.3,32c8.3,0,16-3.1,23.1-9.1c5.6-4.8,10.8-11.6,15.4-20.1l0.1-0.3c7.2-15.1,15.4-22.5,25-22.5
		c1,0,2.1,0.1,3.1,0.2L99,0.2L99,0.2z"/>
	<g>
		<path class="st1" d="M179.1,41.1c-2.2,2.2-5.6,3.5-8.8,3.5c-8.8,0-12-6.1-12-11.8c0-3.5,1.2-6.7,3.4-8.9c2.1-2.2,5-3.2,8.7-3.2
			c3.3,0,6.3,1.2,8.4,3.3l1,0.9l6.9-6.7l-1-1c-4.2-4.2-9.5-6.3-15.3-6.3c-6.4,0-11.9,2.1-15.9,6.1c-3.9,4-6.2,9.8-6.2,15.9
			c0.1,9.9,5.9,21.5,22,21.5c6.2,0,11.7-2.1,15.8-6.2l1-1l-7-7L179.1,41.1L179.1,41.1z M213.1,11c-14.7,0-21.4,11.4-21.4,21.9
			c0,10.7,6.6,21.5,21.4,21.5c14.6,0,21.2-10.8,21.4-21.5c0.1-6.1-2.2-11.9-6.1-15.9C224.5,13,219.2,11,213.1,11L213.1,11z
			 M213.1,44.8c-10.3,0-11.3-9.1-11.4-11.9c-0.1-3.7,1.1-7.1,3.4-9.4c2-2.1,4.7-3.1,8-3.1c3.3,0,6,1,8,3c2.2,2.3,3.5,5.7,3.4,9.5
			C224.3,38.7,221.3,44.8,213.1,44.8z M242.7,11.8h10.1v41.7h-10.1V11.8z M288,33.3l-17-21.5h-8v41.7h10.1V29.9l18.4,23.6h6.6V11.7
			H288V33.3z"/>
		<g>
			<path class="st1" d="M325.5,37.5h10v4.8c-2.3,1.7-4.5,2.4-7.4,2.4c-8.9,0-12-6-12-11.6c0-7.8,4.8-13,12-13c3.2,0,6.7,1.4,8.9,3.5
				l1,0.9l6.5-6.6l-1-1c-4.2-4.1-9.6-6.4-15.4-6.4c-6.8,0-12.5,2.4-16.5,6.9c-3.5,4-5.5,9.6-5.5,15.6c0,10.3,5.8,21.2,22,21.2
				c6.7,0,12.2-2.5,16.6-7.5l0.3-0.4V28.2h-19.5L325.5,37.5L325.5,37.5L325.5,37.5z M392.9,21.2h12.3v32.3h10.1V21.2h12.3v-9.4
				h-34.8V21.2z M466.8,21.6v-9.9h-31.9v41.7h31.9v-10h-21.9v-6H466v-9.6h-21.1v-6.2H466.8z M377.5,11.8h-9.8L349,53.5h11l12.6-28.7
				l12.6,28.7h11.1L377.5,11.8z"/>
		</g>
	</g>
</g>
</svg>
