<svg enable-background="new 0 0 467 64" preserveAspectRatio="xMinYMid" viewBox="0 0 467 64" xmlns="http://www.w3.org/2000/svg"><path d="m98.7 26v12h16.1c-2.5 8.1-10.2 14-19.2 14-7.4 0-15.8-4-20.6-10-2.2 3.8-4.6 7.2-7 10.3 7.2 7.2 17.8 11.7 27.6 11.7 17.8 0 32.4-14.3 32.4-32v-6z" fill="#1a80c3"/><g fill="#002f5e"><path d="m99 .2c-1-.1-2-.2-3.1-.2-8.3 0-15.9 3.2-22.4 9.4-5 4.8-9.5 11.3-13.6 19.9-8.1 15-17.4 22.6-27.6 22.6-11.1 0-20.1-8.9-20.1-19.9s9-19.9 20.2-19.9c4 0 7.9 1.2 11.3 3.4l6.8-10c-5.4-3.6-11.7-5.5-18.2-5.5-17.8 0-32.3 14.4-32.3 32s14.5 32 32.3 32c8.3 0 16-3.1 23.1-9.1 5.6-4.8 10.8-11.6 15.4-20.1l.1-.3c7.2-15.1 15.4-22.5 25-22.5 1 0 2.1.1 3.1.2z"/><path d="m179.1 41.1c-2.2 2.2-5.6 3.5-8.8 3.5-8.8 0-12-6.1-12-11.8 0-3.5 1.2-6.7 3.4-8.9 2.1-2.2 5-3.2 8.7-3.2 3.3 0 6.3 1.2 8.4 3.3l1 .9 6.9-6.7-1-1c-4.2-4.2-9.5-6.3-15.3-6.3-6.4 0-11.9 2.1-15.9 6.1-3.9 4-6.2 9.8-6.2 15.9.1 9.9 5.9 21.5 22 21.5 6.2 0 11.7-2.1 15.8-6.2l1-1-7-7zm34-30.1c-14.7 0-21.4 11.4-21.4 21.9 0 10.7 6.6 21.5 21.4 21.5 14.6 0 21.2-10.8 21.4-21.5.1-6.1-2.2-11.9-6.1-15.9s-9.2-6-15.3-6zm0 33.8c-10.3 0-11.3-9.1-11.4-11.9-.1-3.7 1.1-7.1 3.4-9.4 2-2.1 4.7-3.1 8-3.1s6 1 8 3c2.2 2.3 3.5 5.7 3.4 9.5-.2 5.8-3.2 11.9-11.4 11.9zm29.6-33h10.1v41.7h-10.1zm45.3 21.5-17-21.5h-8v41.7h10.1v-23.6l18.4 23.6h6.6v-41.8h-10.1z"/><path d="m325.5 37.5h10v4.8c-2.3 1.7-4.5 2.4-7.4 2.4-8.9 0-12-6-12-11.6 0-7.8 4.8-13 12-13 3.2 0 6.7 1.4 8.9 3.5l1 .9 6.5-6.6-1-1c-4.2-4.1-9.6-6.4-15.4-6.4-6.8 0-12.5 2.4-16.5 6.9-3.5 4-5.5 9.6-5.5 15.6 0 10.3 5.8 21.2 22 21.2 6.7 0 12.2-2.5 16.6-7.5l.3-.4v-18.1h-19.5zm67.4-16.3h12.3v32.3h10.1v-32.3h12.3v-9.4h-34.8v9.4zm73.9.4v-9.9h-31.9v41.7h31.9v-10h-21.9v-6h21.1v-9.6h-21.1v-6.2zm-89.3-9.8h-9.8l-18.7 41.7h11l12.6-28.7 12.6 28.7h11.1z"/></g></svg>