<svg enable-background="new 0 0 300 68.5" viewBox="0 0 300 68.5" xmlns="http://www.w3.org/2000/svg"><g fill="#001c6c"><path d="m131.3 48.9c-4.2 0-7.6-1.3-10.1-4s-3.7-6.3-3.7-11c0-4.4 1.3-8 3.9-10.7 2.7-2.7 6.4-4.2 10.2-4 3-.1 6 .7 8.6 2.4l-1.7 4.1c-2-1.3-4.4-2-6.8-2.1s-4.8 1-6.3 2.9c-1.6 2.2-2.4 4.9-2.3 7.6 0 3.3.7 5.9 2.2 7.8 1.6 1.9 3.9 2.9 6.4 2.8 2.5 0 5-.6 7.2-1.8l.7 4.2c-2.5 1.2-5.4 1.9-8.3 1.8z"/><path d="m153.2 48.9c-2.9.1-5.7-1-7.6-3.1-1.9-2.3-2.9-5.2-2.8-8.2 0-3.5.9-6.3 2.8-8.3 1.8-2 4.4-3 7.8-3 2.9-.2 5.7 1 7.6 3.1 1.9 2.3 2.9 5.2 2.8 8.2.1 3-.9 5.9-2.8 8.2-2 2.1-4.9 3.3-7.8 3.1zm.2-3.9c1.6.1 3.1-.6 4-1.9 1-1.7 1.4-3.6 1.3-5.5.1-1.9-.4-3.9-1.4-5.6-1.8-2.2-5-2.6-7.2-.8-.3.2-.6.5-.8.8-1 1.7-1.4 3.6-1.3 5.6-.1 1.9.4 3.8 1.4 5.4.8 1.3 2.4 2.1 4 2z"/><path d="m168.1 23.6v-4.4h5.2v4.4zm0 24.9v-21.7h5.2v21.7z"/><path d="m178.7 48.5v-21.7h4.2l.6 2.7c1.9-2 4.6-3.2 7.4-3.3 2.1-.2 4.2.6 5.7 2.2 1.3 1.5 1.9 3.6 1.9 6.3v13.7h-5.2v-13c.1-1.4-.2-2.7-.9-3.9-.7-.9-1.8-1.4-3-1.3-1.1 0-2.2.3-3.1.9-.9.5-1.6 1.3-2 2.2-.3 1.6-.4 3.2-.4 4.8v10.6h-5.2z"/><path d="m210.4 48.9c-2.7.1-5.3-.4-7.7-1.6l.5-3.9c1.1.5 2.2 1 3.3 1.3 1.2.3 2.4.5 3.7.6.9 0 1.9-.2 2.7-.6.6-.4 1-1.1 1-1.9 0-.7-.3-1.4-.9-1.8-1.1-.7-2.2-1.2-3.4-1.6l-1.1-.4c-1.6-.5-3.1-1.4-4.3-2.6-.9-1.1-1.4-2.5-1.3-3.9-.1-1.8.7-3.5 2.1-4.6 1.8-1.2 3.9-1.7 6-1.6 2.5-.1 5 .5 7.3 1.6l-1.3 3.6c-1.8-.9-3.9-1.4-5.9-1.4-.8 0-1.7.1-2.4.5-.6.3-.9.9-.9 1.6 0 .6.3 1.2.9 1.6 1.1.6 2.2 1.1 3.3 1.5l.5.2.7.3c1.6.5 3.1 1.4 4.4 2.6 1 1.1 1.5 2.5 1.4 4 .1 1.9-.7 3.8-2.2 5-1.9 1-4.1 1.6-6.4 1.5z"/><path d="m223.3 48.5v-29h9.7c2 0 4 .3 5.9.9 1.5.5 2.9 1.5 3.8 2.9 1 1.5 1.5 3.2 1.4 5 0 1.3-.2 2.5-.5 3.7-.4 1.1-1 2.1-1.8 2.9-1 1-2.1 1.6-3.4 2-1.7.5-3.5.7-5.4.7-1.8 0-3.3 0-4.4-.2v11.1zm9.1-14.9c1 0 1.9-.1 2.9-.3.7-.2 1.3-.4 1.9-.8.4-.3.8-.7 1.1-1.2.3-.4.4-.9.5-1.4s.1-1 .1-1.5c.1-1.4-.5-2.7-1.5-3.6-1.3-.9-2.8-1.3-4.4-1.2h-4.4v10.1c.2-.1 1.4-.1 3.8-.1z"/><path d="m252.9 48.9c-1.8.1-3.5-.5-4.9-1.7-1.3-1.2-2-3-1.9-4.8-.1-1.9.7-3.8 2.2-5 2-1.3 4.3-2 6.7-2.1.4-.1.9-.1 1.3-.2l1.6-.2 1.4-.1v-1.2c.1-1-.2-2.1-.9-2.9-.8-.7-1.8-1-2.8-.9-2.3.1-4.5.6-6.5 1.5 0 0-.2-.6-.7-1.8l-.6-1.8c2.6-1.1 5.5-1.7 8.3-1.6 2.9 0 5.1.6 6.4 1.9s2 3.3 2 6.2v14.2h-3.8s-.2-.5-.4-1.3-.4-1.3-.4-1.3c-.9.9-2 1.7-3.2 2.3s-2.5.8-3.8.8zm1.4-3.7c1.1 0 2.2-.3 3.1-.9.8-.5 1.5-1.2 1.9-2.1v-4.2l-1 .1-1.1.1c-1.6.1-3.2.5-4.6 1.2-1 .6-1.5 1.8-1.5 2.9 0 .8.2 1.6.8 2.1.7.6 1.6.9 2.4.8z"/><path d="m269.8 23.6v-4.4h5.2v4.4zm0 24.9v-21.7h5.2v21.7z"/><path d="m288.5 48.9c-2.6.1-5.1-1.1-6.7-3.1-1.7-2.4-2.6-5.4-2.4-8.3-.1-2.9.7-5.8 2.4-8.1 1.6-2 4.1-3.2 6.7-3.1 3.1 0 5.3 1.1 6.5 3.3-.1-1.2-.2-2.5-.2-3.7v-7l5.2-.3v30h-4.5l-.6-3c-.2.4-.4.7-.6.9-.2.3-.5.6-.8.9-.4.3-.8.6-1.2.8-.5.2-1.1.4-1.6.5-.7.1-1.5.2-2.2.2zm1.2-3.9c3.5 0 5.2-2.4 5.3-7.1 0-2.7-.5-4.6-1.4-5.8s-2.4-1.9-4-1.8c-1.5-.1-2.9.6-3.7 1.8-1 1.6-1.5 3.6-1.4 5.5-.1 1.9.4 3.9 1.4 5.5.9 1.2 2.3 1.9 3.8 1.9z"/><path d="m75.6 30.1h-51.4c-1.6-.1-3.2-.7-4.4-1.7-1-1.1-1.5-2.6-1.4-4.1 0-5.2 4.1-5.8 5.8-5.9h18.3l-4.9-18.4h-13.3c-8.4 0-24.3 5.1-24.3 24.3s15.9 24.3 24.3 24.3l56.2-.1z"/></g><path d="m47.9 68.5h18.6l-2.5-9.1h4.9c8.4 0 24.2-5.1 24.2-24.3s-15.8-24.2-24.2-24.2h-36.4l5.2 19.2h30.8c1.8 0 6.4-.5 6.7 4.8.2 4.9-4.4 5.2-6.2 5.3h-28.7z" fill="#0c97fa"/></svg>