<?xml version="1.0" encoding="utf-8"?>
<!-- Generator: Adobe Illustrator 23.0.0, SVG Export Plug-In . SVG Version: 6.00 Build 0)  -->
<svg version="1.1" id="Layer_1" xmlns="http://www.w3.org/2000/svg" xmlns:xlink="http://www.w3.org/1999/xlink" x="0px" y="0px"
	 viewBox="0 0 300 68.5" style="enable-background:new 0 0 300 68.5;" xml:space="preserve">
<style type="text/css">
	.st0{fill:#001C6C;}
	.st1{fill:#0C97FA;}
</style>
<title>Logo_CoinsPaid_light theme</title>
<g>
	<g id="Layer_1-2">
		<path class="st0" d="M131.3,48.9c-4.2,0-7.6-1.3-10.1-4c-2.5-2.7-3.7-6.3-3.7-11c0-4.4,1.3-8,3.9-10.7c2.7-2.7,6.4-4.2,10.2-4
			c3-0.1,6,0.7,8.6,2.4l-1.7,4.1c-2-1.3-4.4-2-6.8-2.1c-2.4-0.1-4.8,1-6.3,2.9c-1.6,2.2-2.4,4.9-2.3,7.6c0,3.3,0.7,5.9,2.2,7.8
			c1.6,1.9,3.9,2.9,6.4,2.8c2.5,0,5-0.6,7.2-1.8l0.7,4.2C137.1,48.3,134.2,49,131.3,48.9z"/>
		<path class="st0" d="M153.2,48.9c-2.9,0.1-5.7-1-7.6-3.1c-1.9-2.3-2.9-5.2-2.8-8.2c0-3.5,0.9-6.3,2.8-8.3c1.8-2,4.4-3,7.8-3
			c2.9-0.2,5.7,1,7.6,3.1c1.9,2.3,2.9,5.2,2.8,8.2c0.1,3-0.9,5.9-2.8,8.2C159,47.9,156.1,49.1,153.2,48.9z M153.4,45
			c1.6,0.1,3.1-0.6,4-1.9c1-1.7,1.4-3.6,1.3-5.5c0.1-1.9-0.4-3.9-1.4-5.6c-1.8-2.2-5-2.6-7.2-0.8c-0.3,0.2-0.6,0.5-0.8,0.8
			c-1,1.7-1.4,3.6-1.3,5.6c-0.1,1.9,0.4,3.8,1.4,5.4C150.2,44.3,151.8,45.1,153.4,45L153.4,45z"/>
		<path class="st0" d="M168.1,23.6v-4.4h5.2v4.4H168.1z M168.1,48.5V26.8h5.2v21.7H168.1z"/>
		<path class="st0" d="M178.7,48.5V26.8h4.2l0.6,2.7c1.9-2,4.6-3.2,7.4-3.3c2.1-0.2,4.2,0.6,5.7,2.2c1.3,1.5,1.9,3.6,1.9,6.3v13.7
			h-5.2V35.4c0.1-1.4-0.2-2.7-0.9-3.9c-0.7-0.9-1.8-1.4-3-1.3c-1.1,0-2.2,0.3-3.1,0.9c-0.9,0.5-1.6,1.3-2,2.2
			c-0.3,1.6-0.4,3.2-0.4,4.8v10.6H178.7z"/>
		<path class="st0" d="M210.4,48.9c-2.7,0.1-5.3-0.4-7.7-1.6l0.5-3.9c1.1,0.5,2.2,1,3.3,1.3c1.2,0.3,2.4,0.5,3.7,0.6
			c0.9,0,1.9-0.2,2.7-0.6c0.6-0.4,1-1.1,1-1.9c0-0.7-0.3-1.4-0.9-1.8c-1.1-0.7-2.2-1.2-3.4-1.6l-1.1-0.4c-1.6-0.5-3.1-1.4-4.3-2.6
			c-0.9-1.1-1.4-2.5-1.3-3.9c-0.1-1.8,0.7-3.5,2.1-4.6c1.8-1.2,3.9-1.7,6-1.6c2.5-0.1,5,0.5,7.3,1.6l-1.3,3.6
			c-1.8-0.9-3.9-1.4-5.9-1.4c-0.8,0-1.7,0.1-2.4,0.5c-0.6,0.3-0.9,0.9-0.9,1.6c0,0.6,0.3,1.2,0.9,1.6c1.1,0.6,2.2,1.1,3.3,1.5
			l0.5,0.2l0.7,0.3c1.6,0.5,3.1,1.4,4.4,2.6c1,1.1,1.5,2.5,1.4,4c0.1,1.9-0.7,3.8-2.2,5C214.9,48.4,212.7,49,210.4,48.9z"/>
		<path class="st0" d="M223.3,48.5v-29h9.7c2,0,4,0.3,5.9,0.9c1.5,0.5,2.9,1.5,3.8,2.9c1,1.5,1.5,3.2,1.4,5c0,1.3-0.2,2.5-0.5,3.7
			c-0.4,1.1-1,2.1-1.8,2.9c-1,1-2.1,1.6-3.4,2c-1.7,0.5-3.5,0.7-5.4,0.7c-1.8,0-3.3,0-4.4-0.2v11.1H223.3z M232.4,33.6
			c1,0,1.9-0.1,2.9-0.3c0.7-0.2,1.3-0.4,1.9-0.8c0.4-0.3,0.8-0.7,1.1-1.2c0.3-0.4,0.4-0.9,0.5-1.4c0.1-0.5,0.1-1,0.1-1.5
			c0.1-1.4-0.5-2.7-1.5-3.6c-1.3-0.9-2.8-1.3-4.4-1.2h-4.4v10.1C228.8,33.6,230,33.6,232.4,33.6z"/>
		<path class="st0" d="M252.9,48.9c-1.8,0.1-3.5-0.5-4.9-1.7c-1.3-1.2-2-3-1.9-4.8c-0.1-1.9,0.7-3.8,2.2-5c2-1.3,4.3-2,6.7-2.1
			c0.4-0.1,0.9-0.1,1.3-0.2l1.6-0.2l1.4-0.1v-1.2c0.1-1-0.2-2.1-0.9-2.9c-0.8-0.7-1.8-1-2.8-0.9c-2.3,0.1-4.5,0.6-6.5,1.5
			c0,0-0.2-0.6-0.7-1.8l-0.6-1.8c2.6-1.1,5.5-1.7,8.3-1.6c2.9,0,5.1,0.6,6.4,1.9c1.3,1.3,2,3.3,2,6.2v14.2h-3.8c0,0-0.2-0.5-0.4-1.3
			s-0.4-1.3-0.4-1.3c-0.9,0.9-2,1.7-3.2,2.3C255.5,48.7,254.2,48.9,252.9,48.9z M254.3,45.2c1.1,0,2.2-0.3,3.1-0.9
			c0.8-0.5,1.5-1.2,1.9-2.1v-4.2l-1,0.1l-1.1,0.1c-1.6,0.1-3.2,0.5-4.6,1.2c-1,0.6-1.5,1.8-1.5,2.9c0,0.8,0.2,1.6,0.8,2.1
			C252.6,45,253.5,45.3,254.3,45.2z"/>
		<path class="st0" d="M269.8,23.6v-4.4h5.2v4.4H269.8z M269.8,48.5V26.8h5.2v21.7H269.8z"/>
		<path class="st0" d="M288.5,48.9c-2.6,0.1-5.1-1.1-6.7-3.1c-1.7-2.4-2.6-5.4-2.4-8.3c-0.1-2.9,0.7-5.8,2.4-8.1
			c1.6-2,4.1-3.2,6.7-3.1c3.1,0,5.3,1.1,6.5,3.3c-0.1-1.2-0.2-2.5-0.2-3.7v-7l5.2-0.3v30h-4.5l-0.6-3c-0.2,0.4-0.4,0.7-0.6,0.9
			c-0.2,0.3-0.5,0.6-0.8,0.9c-0.4,0.3-0.8,0.6-1.2,0.8c-0.5,0.2-1.1,0.4-1.6,0.5C290,48.8,289.2,48.9,288.5,48.9z M289.7,45
			c3.5,0,5.2-2.4,5.3-7.1c0-2.7-0.5-4.6-1.4-5.8c-0.9-1.2-2.4-1.9-4-1.8c-1.5-0.1-2.9,0.6-3.7,1.8c-1,1.6-1.5,3.6-1.4,5.5
			c-0.1,1.9,0.4,3.9,1.4,5.5C286.8,44.3,288.2,45,289.7,45z"/>
		<path class="st0" d="M75.6,30.1H24.2c-1.6-0.1-3.2-0.7-4.4-1.7c-1-1.1-1.5-2.6-1.4-4.1c0-5.2,4.1-5.8,5.8-5.9h18.3L37.6,0H24.3
			C15.9,0,0,5.1,0,24.3s15.9,24.3,24.3,24.3l56.2-0.1L75.6,30.1z"/>
		<path class="st1" d="M47.9,68.5h18.6L64,59.4h4.9c8.4,0,24.2-5.1,24.2-24.3S77.3,10.9,68.9,10.9H32.5l5.2,19.2h30.8
			c1.8,0,6.4-0.5,6.7,4.8c0.2,4.9-4.4,5.2-6.2,5.3H40.3L47.9,68.5z"/>
	</g>
</g>
</svg>
