<svg height="259" viewBox="0 0 1354 259" width="1354" xmlns="http://www.w3.org/2000/svg" xmlns:xlink="http://www.w3.org/1999/xlink"><linearGradient id="a" x1="0%" x2="100%" y1="50%" y2="50%"><stop offset="0" stop-color="#e9c150"/><stop offset="1" stop-color="#f7903b"/></linearGradient><g fill="none" fill-rule="evenodd"><g transform="translate(0 -1)"><path d="m282.613156 257.788674c-27.85256-4.7-50.687563-16.4-71.269785-36.5-18.124644-17.7-28.262157-35-35.430095-60.6-1.012841-3.758623-3.166933-16.657774-3.177962-29.824468-.011271-13.456589 2.142821-27.184699 3.177962-30.9755321 8.396728-30.1 23.2446-52.8 47.103594-71.4 35.532494-27.89999998 86.117658-35.29999998 129.842081-18.79999998 17.30545 6.49999998 36.966081 19.49999998 48.946778 32.29999998 11.161503 11.9 22.835003 30.4 26.214174 41.4 1.228789 4-1.535987-1.3622898-4.505562 2.8377102-8.08953 11.5-18.329442 23.5622899-33.791708 23.5622899-15.15507 0-26.214174-6.451975-36.863682-19.3519752-11.059105-13.3-25.087784-20.9480249-40.959647-24.0480249-9.727916-2-15.052671-2-24.882986 0-22.937402 4.6-40.345252 19.7-48.946778 42.4000001-2.662377 7.1-3.276772 26.5-1.023991 34.8 3.071974 11.2 8.191929 19.8 17.40785 28.7 9.113521 9 17.919845 14 29.388547 17 8.499126 2.2 28.364555 1.6 35.634892-1 12.595092-4.5 17.817447-7.9 28.671753-18.6 5.939149-5.8 12.674923-10.451479 14.927703-11.651479 20.88942-10.6 49.035442-5.071345 62.552126 9.928655 4.403162 4.9 5.258658 4.522824-2.114079 19.322824-5.631951 11.3-14.540674 23.9-23.039801 32.8-9.011122 9.5-29.286147 23-42.700432 28.6-24.882985 10.3-49.970769 13.3-75.160952 9.1z" fill="url(#a)" transform="matrix(-1 0 0 1 601.735314 0)"/><path d="m107.5 257.777348c-27.2-4.7-49.5-16.4-69.6-36.5-17.7-17.7-27.6-35-34.6-60.6-1.01713038-3.865096-2.5774478-16.839558-2.56002397-30.376824.01683693-13.08128 1.57715435-26.737415 2.56002397-30.4231762 8.2-30.1 22.7-52.8 46-71.4 34.7-27.89999995 84.1-35.29999995 126.8-18.79999995 16.9 6.49999995 36.1 19.49999995 47.8 32.29999995 10.9 11.9 22.3 30.4 25.6 41.4 1.2 4 1.1 4.4-1.8 8.6-7.9 11.5000002-20.5 17.8000002-35.6 17.8000002-14.8 0-26.6-6-37-18.9000002-10.8-13.3-23.5-21.4-39-24.5-9.5-2-14.7-2-24.3 0-22.4 4.6-39.4 19.7-47.8 42.4000002-2.6 7.1-3.2 26.5-1 34.8 3 11.2 8 19.8 17 28.7 8.9 9 17.5 14 28.7 17 8.3 2.2 27.7 1.6 34.8-1 12.3-4.5 17.4-7.9 28-18.6 5.8-5.8 12.3-11.5 14.5-12.7 20.4-10.6 49.2-6.7 62.4 8.3 4.3 4.9 3.9 7.2-3.3 22-5.5 11.3-14.2 23.9-22.5 32.8-8.8 9.5-28.6 23-41.7 28.6-24.3 10.3-48.8 13.3-73.4 9.1z" fill="#2c77bc"/></g><g transform="translate(528 42)"><path d="m0 84.7969095c0-33.3046358 5.89988081-55.0353201 19.1156138-67.5540839 13.4517283-12.99116997 31.1513707-17.2428256 58.7628129-17.2428256 17.9356377 0 33.7473183 1.88962472 47.6710373 5.90507726l-7.315853 33.54083884c-8.495828-3.0706402-19.3516086-4.4878587-32.3313464-4.4878587-18.1716329 0-26.6674613 1.1810154-34.9272944 8.0309051-7.7878427 6.8498896-10.3837902 19.6048565-10.3837902 42.2803532 0 22.6754963 2.5959475 35.4304633 10.3837902 42.7527593s16.9916567 8.739514 34.9272944 8.739514c12.2717521 0 23.1275324-1.417218 32.3313464-4.487858l7.315853 34.249448c-13.923719 3.543046-29.9713949 5.432671-47.6710373 5.432671-27.375447 0-47.1990465-6.377484-59.4707986-19.13245-12.27175206-12.754967-18.4076281-35.430464-18.4076281-68.0264905zm196.584029 87.1589405c-20.29559 0-35.16329-4.724062-44.603099-14.172186-9.203814-9.684326-13.923719-26.454746-13.923719-50.311258s4.719905-40.1545252 13.923719-49.3664457c9.439809-9.2119206 24.307509-13.6997793 44.603099-13.6997793 20.531585 0 35.63528 4.4878587 44.839094 13.6997793 9.439809 9.2119205 14.159714 25.5099337 14.159714 49.3664457s-4.719905 40.626932-14.159714 50.311258c-9.43981 9.448124-24.307509 14.172186-44.839094 14.172186zm0-99.2052981c-8.967819 0-14.8677 2.1258278-17.699643 6.3774834-2.831943 4.0154526-4.247914 13.6997793-4.247914 29.0529797 0 14.880795 1.415971 24.328919 4.247914 28.816777 3.067938 4.487859 8.967819 6.613687 17.699643 6.613687 8.731823 0 14.631704-2.125828 17.699642-6.613687 3.067938-4.487858 4.483909-13.935982 4.483909-28.816777-.94398-32.1236199-3.775923-34.9580569-22.183551-35.4304631zm148.205006 99.2052981c-9.203814 0-17.935638-1.889625-26.431466-5.432671v47.476821h-36.343266v-161.0905077c14.867699-5.6688742 33.039332-8.5033113 54.750894-8.5033113 21.239571 0 36.343265 4.7240618 45.54708 13.9359824 9.203814 9.2119205 13.687723 25.7461368 13.687723 49.8388516 0 46.295806-18.879619 63.774835-51.210965 63.774835zm-8.023838-97.3156734c-7.315853 0-13.451729.9448124-18.407628 2.8344371v55.5077263c0 5.432671 8.023837 9.21192 18.643623 9.21192 17.227652 0 22.655542-7.558498 22.655542-33.068432 0-14.1721856-1.651966-23.3841061-4.719904-27.8719649-3.067938-4.4878587-9.203815-6.6136865-18.171633-6.6136865z" fill="#2a384e"/><path d="m465.033748 36.5984252v49.3700787h40.632327c11.103019 0 16.536412-8.031496 16.536412-24.0944882 0-16.7716535-5.433393-25.2755905-16.063943-25.2755905zm0 80.7874018v51.259842h-38.033748v-164.645669h92.367673c28.58437 0 44.648313 21.9685039 44.648313 57.8740157 0 15.8267717-4.015986 29.0551182-11.811723 39.6850393-7.795737 10.629921-18.662522 15.826772-33.072824 15.826772zm224.186501-25.9842522v71.1023622c-17.245116 6.377953-36.380107 9.448819-57.404974 9.448819-20.079929 0-33.545293-2.834646-40.868561-8.267717-7.323268-5.43307-10.866785-16.062992-10.866785-31.889763 0-15.826772 3.779751-26.220473 11.339254-31.417323 7.795737-5.4330711 19.60746-8.0314963 35.907638-8.0314963 8.268206 0 17.48135.9448819 27.403197 3.0708661 0-8.7401574-1.653641-14.4094488-5.197158-17.2440945-3.307283-2.8346456-10.630551-4.2519685-22.206039-4.2519685-12.520427 0-25.040853 1.8897638-37.561279 5.6692914l-5.669627-28.8188977c16.772646-4.2519685 34.017762-6.3779527 51.971581-6.3779527 37.561278 0 53.152753 12.0472441 53.152753 47.007874zm-34.490231 50.3149602v-22.913385c-4.25222-1.181103-10.866785-1.653544-19.60746-1.653544-13.937833 0-17.717585 2.125985-17.717585 13.464567 0 12.283465 3.071048 14.409449 17.245116 14.409449 7.559502 0 14.174067-1.181102 20.079929-3.307087zm135.12611-93.7795271h36.143872c-16.300178 56.9291341-37.325044 112.4409451-63.310835 166.0629921h-39.923623c5.905861-9.92126 12.520426-23.149606 19.843694-39.448819-11.339254-40.866142-25.277087-83.1496062-41.577264-126.6141731h36.616341c9.213143 24.3307086 18.190053 52.2047241 26.458259 84.0944881 11.811723-33.7795275 20.316163-61.6535432 25.749556-84.0944881z" fill="#2c77bd"/></g></g></svg>