<svg id="Layer_1" data-name="Layer 1" xmlns="http://www.w3.org/2000/svg" viewBox="0 0 185.92 35.26"><defs><style>.cls-1{fill:#f99d1c;}.cls-2{fill:#0066b3;}</style></defs><title>GC Identity Logo_Horizontal_Sans Tagline_RGB</title><path class="cls-1" d="M88.7,34.85a16.61,16.61,0,0,1-6.4-6.18A17.15,17.15,0,0,1,80,19.81,17.14,17.14,0,0,1,82.3,11a16.59,16.59,0,0,1,6.42-6.18,18.75,18.75,0,0,1,9.17-2.24,19.24,19.24,0,0,1,7.24,1.32,14.89,14.89,0,0,1,5.6,3.94l-3.14,3a12.59,12.59,0,0,0-9.51-4,13.72,13.72,0,0,0-6.8,1.69,12.23,12.23,0,0,0-4.75,4.66,13,13,0,0,0-1.72,6.63,13,13,0,0,0,1.72,6.64,12.23,12.23,0,0,0,4.75,4.66,13.83,13.83,0,0,0,6.8,1.69,12.62,12.62,0,0,0,9.51-4.06l3.14,3a15,15,0,0,1-5.62,4,19.09,19.09,0,0,1-7.27,1.35A18.69,18.69,0,0,1,88.7,34.85Z" transform="translate(-2.58 -2.19)"/><path class="cls-1" d="M118.61,34.85a16.65,16.65,0,0,1-6.45-6.2,17.06,17.06,0,0,1-2.34-8.84A17,17,0,0,1,112.16,11a16.58,16.58,0,0,1,6.45-6.2,20,20,0,0,1,18.38,0A16.46,16.46,0,0,1,143.41,11a17,17,0,0,1,2.32,8.85,17.06,17.06,0,0,1-2.32,8.86A16.46,16.46,0,0,1,137,34.85a20,20,0,0,1-18.38,0Zm15.9-3.74a12.39,12.39,0,0,0,4.68-4.66,13.06,13.06,0,0,0,1.71-6.64,13,13,0,0,0-1.71-6.63,12.39,12.39,0,0,0-4.68-4.66,13.25,13.25,0,0,0-6.69-1.69,13.51,13.51,0,0,0-6.73,1.69,12.31,12.31,0,0,0-4.73,4.66,13,13,0,0,0-1.71,6.63,13.06,13.06,0,0,0,1.71,6.64,12.31,12.31,0,0,0,4.73,4.66,13.61,13.61,0,0,0,6.73,1.69A13.35,13.35,0,0,0,134.51,31.11Z" transform="translate(-2.58 -2.19)"/><path class="cls-1" d="M149,2.92h4.82V36.71H149Z" transform="translate(-2.58 -2.19)"/><path class="cls-1" d="M188.5,2.92V36.71h-4l-20.27-25.2v25.2h-4.83V2.92h4l20.27,25.19V2.92Z" transform="translate(-2.58 -2.19)"/><path class="cls-1" d="M12,7.31l5.35,3.3a23.54,23.54,0,0,1,2.6-.48,8.39,8.39,0,0,1,2.4.21,11.84,11.84,0,0,1,1.53.49l.43.18.19.09a9.66,9.66,0,0,1,3.81,3.34.47.47,0,0,0,.34.21h.05l8.23.12h.16c.11,0,.11-.09,0-.29A17.57,17.57,0,0,0,28.85,4.37a16.54,16.54,0,0,0-7-2.14A15.92,15.92,0,0,0,18,2.4,19.38,19.38,0,0,0,9.57,5.81s0,0,.06.05C10.42,6.33,11.2,6.82,12,7.31Z" transform="translate(-2.58 -2.19)"/><path class="cls-2" d="M23.08,37.2a17.1,17.1,0,0,0,11.3-6.81,17.45,17.45,0,0,0,3.55-9.94c0-.23-.06-.28-.29-.29l-17.06-.25c-.07,0-.16,0-.23,0a.94.94,0,0,0,.18.12l7.66,4.69c.2.12.22.19.09.39a9.63,9.63,0,0,1-17.43-7.37,9.51,9.51,0,0,1,6.5-7.16L12,7.31c-.79-.48-1.56-1-2.36-1.45l-.06,0A16.78,16.78,0,0,0,7.71,7.37,17.85,17.85,0,0,0,3,16.21a17.44,17.44,0,0,0-.3,1.92c0,.05,0,.11-.06.13l0,2.52c.09,0,0,.11.06.17A20.34,20.34,0,0,0,2.9,23a17.23,17.23,0,0,0,6,10.3A17.1,17.1,0,0,0,23.08,37.2Z" transform="translate(-2.58 -2.19)"/><path class="cls-2" d="M49.07,35a16.79,16.79,0,0,1-6.61-6.25,17.05,17.05,0,0,1-2.39-9,16.83,16.83,0,0,1,9-15.2,19.76,19.76,0,0,1,9.48-2.26A19.6,19.6,0,0,1,68,4.61a17.14,17.14,0,0,1,6.61,6.25,16.94,16.94,0,0,1,2.42,9A16.93,16.93,0,0,1,68,35a19.49,19.49,0,0,1-9.46,2.27A19.65,19.65,0,0,1,49.07,35ZM64,29.25a9.92,9.92,0,0,0,3.79-3.84,11.33,11.33,0,0,0,1.37-5.6,11.32,11.32,0,0,0-1.37-5.59A9.92,9.92,0,0,0,64,10.38a11.35,11.35,0,0,0-10.81,0,9.92,9.92,0,0,0-3.79,3.84A11.32,11.32,0,0,0,48,19.81a11.33,11.33,0,0,0,1.37,5.6,9.92,9.92,0,0,0,3.79,3.84,11.35,11.35,0,0,0,10.81,0Z" transform="translate(-2.58 -2.19)"/></svg>