<?xml version="1.0" encoding="utf-8"?>
<!-- Generator: Adobe Illustrator 23.0.0, SVG Export Plug-In . SVG Version: 6.00 Build 0)  -->
<svg version="1.1" id="Layer_1" xmlns="http://www.w3.org/2000/svg" xmlns:xlink="http://www.w3.org/1999/xlink" x="0px" y="0px"
	 viewBox="0 0 1081.8 140" style="enable-background:new 0 0 1081.8 140;" xml:space="preserve">
<style type="text/css">
	.st0{filter:url(#Adobe_OpacityMaskFilter);}
	.st1{fill-rule:evenodd;clip-rule:evenodd;fill:#FFFFFF;}
	.st2{mask:url(#mask-2_1_);fill-rule:evenodd;clip-rule:evenodd;fill:#FF2400;}
	.st3{fill-rule:evenodd;clip-rule:evenodd;fill:#FF2400;}
	.st4{filter:url(#Adobe_OpacityMaskFilter_1_);}
	.st5{mask:url(#mask-4_1_);fill-rule:evenodd;clip-rule:evenodd;fill:#FF2400;}
	.st6{filter:url(#Adobe_OpacityMaskFilter_2_);}
	.st7{mask:url(#mask-6_1_);fill-rule:evenodd;clip-rule:evenodd;fill:#FF2400;}
</style>
<defs>
	<filter id="Adobe_OpacityMaskFilter" filterUnits="userSpaceOnUse" x="0" y="2.4" width="91.4" height="135.8">
		<feColorMatrix  type="matrix" values="1 0 0 0 0  0 1 0 0 0  0 0 1 0 0  0 0 0 1 0"/>
	</filter>
</defs>
<mask maskUnits="userSpaceOnUse" x="0" y="2.4" width="91.4" height="135.8" id="mask-2_1_">
	<g class="st0">
		<polygon id="path-1_1_" class="st1" points="0,2.4 91.4,2.4 91.4,138.2 0,138.2 		"/>
	</g>
</mask>
<path id="Fill-1" class="st2" d="M63,45.4c0-4.7-0.8-8.6-2.5-11.7c-1.7-3.1-3.7-5.3-6.1-6.8c-2.4-1.5-4.9-2.4-7.6-2.8
	c-2.6-0.4-5.4-0.6-8.2-0.6H27.1v45.9h12.2c4.3,0,8-0.6,10.9-1.8c2.9-1.2,5.3-2.8,7.2-5c1.9-2.1,3.3-4.7,4.2-7.6
	C62.6,52.1,63,48.9,63,45.4 M91.4,43.5c0,7.6-1.2,14.3-3.5,20.2s-5.7,10.8-10.2,14.8c-4.5,4-10,7.1-16.5,9.1
	c-6.5,2.1-14.2,3.1-23,3.1H27.1v43.2c0,0.7-0.2,1.3-0.7,1.9c-0.4,0.6-1.2,1-2.2,1.4c-1,0.4-2.4,0.6-4.1,0.8
	c-1.7,0.2-3.9,0.3-6.6,0.3c-2.6,0-4.8-0.1-6.6-0.3c-1.8-0.2-3.1-0.5-4.2-0.8c-1-0.3-1.8-0.8-2.2-1.4c-0.4-0.6-0.6-1.2-0.6-1.9V12.2
	c0-3.3,0.8-5.7,2.5-7.4c1.7-1.6,3.9-2.5,6.7-2.5h31.5c3.2,0,6.2,0.1,9,0.4C52.5,3,56,3.5,59.9,4.3c4,0.8,8,2.3,12.1,4.4
	c4.1,2.2,7.6,4.9,10.5,8.2c2.9,3.3,5.1,7.2,6.6,11.6C90.7,33,91.4,38,91.4,43.5"/>
<path id="Fill-4" class="st3" d="M168.3,28.2h-0.1l-18.9,57.5h37.9L168.3,28.2z M229.6,127.4c0.8,2.5,1.3,4.5,1.5,6
	c0.2,1.5-0.1,2.6-0.8,3.3c-0.8,0.7-2.1,1.2-4,1.4c-1.9,0.2-4.6,0.3-7.9,0.3c-3.5,0-6.2-0.1-8.2-0.2c-2-0.1-3.5-0.3-4.5-0.6
	c-1-0.3-1.8-0.7-2.2-1.3c-0.4-0.6-0.8-1.3-1-2.2l-9-27.2h-50.1l-8.5,26.4c-0.3,1-0.6,1.8-1.1,2.5c-0.4,0.7-1.2,1.2-2.2,1.6
	c-1,0.4-2.4,0.6-4.2,0.8c-1.8,0.1-4.2,0.2-7.2,0.2c-3.2,0-5.6-0.1-7.4-0.3c-1.8-0.2-3-0.7-3.7-1.5c-0.7-0.8-0.9-1.9-0.7-3.4
	c0.2-1.5,0.7-3.4,1.5-5.8L151,7.2c0.4-1.2,0.9-2.1,1.4-2.9c0.5-0.7,1.4-1.3,2.6-1.7c1.2-0.4,2.9-0.6,5-0.7c2.1-0.1,5-0.2,8.5-0.2
	c4.1,0,7.3,0.1,9.7,0.2c2.4,0.1,4.3,0.3,5.6,0.7c1.3,0.4,2.3,1,2.9,1.7c0.6,0.8,1.1,1.8,1.5,3.1L229.6,127.4z"/>
<path id="Fill-6" class="st3" d="M310.8,86.3v47.5c0,0.7-0.2,1.3-0.7,1.9c-0.4,0.6-1.2,1-2.2,1.4c-1,0.4-2.4,0.6-4.2,0.8
	c-1.8,0.2-3.9,0.3-6.5,0.3c-2.7,0-4.9-0.1-6.6-0.3c-1.7-0.2-3.1-0.5-4.2-0.8c-1.1-0.3-1.8-0.8-2.2-1.4c-0.4-0.6-0.6-1.2-0.6-1.9
	V86.3L247,12.6c-1.3-2.6-2.1-4.6-2.5-6c-0.4-1.4-0.2-2.5,0.6-3.2c0.8-0.7,2.3-1.2,4.4-1.4c2.1-0.2,5.1-0.3,8.9-0.3
	c3.2,0,5.7,0.1,7.6,0.2c1.9,0.1,3.4,0.4,4.5,0.8c1.1,0.4,1.9,0.9,2.4,1.5s1,1.4,1.5,2.4l14.9,33.2c1.4,3.2,2.9,6.6,4.3,10.1
	s2.8,7.3,4.3,11.2h0.2c1.3-3.8,2.6-7.4,4-11c1.4-3.5,2.7-6.9,4-10.1l14.7-33c0.3-1.1,0.8-2,1.3-2.7c0.5-0.7,1.3-1.2,2.3-1.6
	c1-0.4,2.4-0.7,4.2-0.8c1.8-0.1,4.2-0.2,7.1-0.2c3.9,0,7,0.1,9.1,0.3c2.2,0.2,3.6,0.6,4.4,1.4c0.8,0.7,1,1.8,0.6,3.3
	c-0.4,1.5-1.2,3.4-2.5,6L310.8,86.3z"/>
<path id="Fill-8" class="st3" d="M475.8,13.7c0,2-0.1,3.7-0.3,5.2c-0.2,1.4-0.4,2.6-0.8,3.4c-0.3,0.9-0.8,1.5-1.3,1.9
	c-0.5,0.4-1.1,0.6-1.7,0.6h-33.4v109c0,0.7-0.2,1.3-0.7,1.9c-0.4,0.6-1.2,1-2.2,1.4c-1,0.3-2.4,0.6-4.2,0.8
	c-1.8,0.2-3.9,0.3-6.5,0.3c-2.6,0-4.8-0.1-6.6-0.3c-1.8-0.2-3.1-0.5-4.2-0.8c-1-0.4-1.8-0.8-2.2-1.4c-0.4-0.6-0.7-1.2-0.7-1.9v-109
	h-33.4c-0.7,0-1.3-0.2-1.8-0.6c-0.5-0.4-0.9-1.1-1.2-1.9c-0.3-0.9-0.6-2-0.8-3.4c-0.2-1.4-0.3-3.2-0.3-5.2c0-2.1,0.1-3.9,0.3-5.3
	c0.2-1.5,0.4-2.6,0.8-3.5c0.3-0.9,0.8-1.5,1.2-1.9c0.5-0.4,1.1-0.6,1.8-0.6h94.1c0.6,0,1.2,0.2,1.7,0.6c0.5,0.4,0.9,1,1.3,1.9
	c0.3,0.9,0.6,2,0.8,3.5C475.7,9.8,475.8,11.6,475.8,13.7"/>
<defs>
	<filter id="Adobe_OpacityMaskFilter_1_" filterUnits="userSpaceOnUse" x="494.6" y="0" width="126.4" height="140">
		<feColorMatrix  type="matrix" values="1 0 0 0 0  0 1 0 0 0  0 0 1 0 0  0 0 0 1 0"/>
	</filter>
</defs>
<mask maskUnits="userSpaceOnUse" x="494.6" y="0" width="126.4" height="140" id="mask-4_1_">
	<g class="st4">
		<polygon id="path-3_1_" class="st1" points="494.6,0 621,0 621,140 494.6,140 		"/>
	</g>
</mask>
<path id="Fill-10" class="st5" d="M592.5,69.9c0-7.1-0.5-13.6-1.7-19.4c-1.1-5.8-3-10.8-5.6-14.9c-2.7-4.1-6.2-7.3-10.6-9.6
	c-4.4-2.3-9.9-3.4-16.5-3.4c-6.7,0-12.2,1.3-16.7,3.8c-4.5,2.5-8.1,5.9-10.8,10.2s-4.7,9.2-5.8,14.9s-1.7,11.7-1.7,18
	c0,7.4,0.6,14,1.7,19.9c1.1,5.9,3,10.9,5.6,15.1c2.6,4.2,6.1,7.4,10.5,9.6c4.4,2.2,9.9,3.3,16.6,3.3c6.7,0,12.2-1.3,16.7-3.8
	c4.5-2.5,8.1-5.9,10.8-10.2c2.8-4.3,4.7-9.3,5.8-15.1C591.9,82.5,592.5,76.4,592.5,69.9 M621,68.4c0,11.2-1.4,21.2-4.1,30.1
	c-2.8,8.8-6.8,16.4-12.3,22.5c-5.4,6.2-12.2,10.9-20.2,14.1c-8,3.2-17.3,4.9-27.8,4.9c-10.4,0-19.4-1.4-27.2-4.1
	c-7.7-2.8-14.2-6.9-19.3-12.6c-5.2-5.6-9-12.8-11.6-21.5c-2.6-8.7-3.9-19-3.9-30.9c0-10.9,1.4-20.8,4.1-29.5
	c2.8-8.7,6.8-16.2,12.3-22.3c5.4-6.1,12.2-10.8,20.2-14.1c8-3.3,17.3-4.9,27.9-4.9c10.1,0,19,1.4,26.8,4.1
	c7.7,2.7,14.2,6.9,19.4,12.5c5.2,5.6,9.1,12.8,11.8,21.4C619.6,46.6,621,56.7,621,68.4"/>
<path id="Fill-13" class="st3" d="M812.6,133.8c0,0.7-0.2,1.3-0.6,1.9c-0.4,0.6-1.1,1-2.1,1.4c-1,0.4-2.3,0.6-4,0.8
	c-1.7,0.2-3.8,0.3-6.3,0.3c-2.5,0-4.5-0.1-6.2-0.3c-1.7-0.2-3-0.5-3.9-0.8c-1-0.3-1.6-0.8-2.1-1.4c-0.4-0.6-0.6-1.2-0.6-1.9v-110
	h-0.2L748,133.7c-0.3,0.9-0.7,1.7-1.3,2.2c-0.6,0.6-1.5,1.1-2.5,1.4c-1.1,0.3-2.4,0.6-4.1,0.7c-1.7,0.1-3.6,0.2-6,0.2
	c-2.3,0-4.3-0.1-6-0.3c-1.6-0.2-3-0.5-4.1-0.8c-1.1-0.4-1.9-0.9-2.5-1.4c-0.6-0.6-1-1.2-1.2-2L682.9,23.8h-0.2v110
	c0,0.7-0.2,1.3-0.6,1.9c-0.4,0.6-1.1,1-2.1,1.4c-1,0.4-2.4,0.6-4,0.8c-1.6,0.2-3.7,0.3-6.2,0.3c-2.5,0-4.5-0.1-6.2-0.3
	c-1.7-0.2-3-0.5-4-0.8c-1-0.3-1.7-0.8-2.1-1.4c-0.4-0.6-0.6-1.2-0.6-1.9V13.4c0-3.6,0.9-6.3,2.8-8.1c1.9-1.9,4.3-2.8,7.4-2.8H685
	c3.2,0,5.9,0.3,8.1,0.8c2.3,0.5,4.2,1.4,5.9,2.6c1.7,1.2,3,2.8,4.1,4.8c1.1,2,2.1,4.4,2.9,7.4l28.9,80.5h0.4l29.9-80.3
	c0.9-2.9,1.9-5.4,2.9-7.4c1.1-2,2.3-3.7,3.7-4.9s3.1-2.1,5-2.7c1.9-0.5,4.2-0.8,6.7-0.8h18.3c1.9,0,3.5,0.2,4.8,0.7
	c1.3,0.5,2.4,1.2,3.3,2.1c0.9,0.9,1.5,2.1,2,3.4s0.7,2.9,0.7,4.6V133.8z"/>
<path id="Fill-15" class="st3" d="M905.8,28.2h-0.1l-18.9,57.5h37.9L905.8,28.2z M967.1,127.4c0.8,2.5,1.3,4.5,1.5,6
	c0.2,1.5-0.1,2.6-0.8,3.3c-0.8,0.7-2.1,1.2-4,1.4c-1.9,0.2-4.6,0.3-7.9,0.3c-3.5,0-6.2-0.1-8.2-0.2c-2-0.1-3.5-0.3-4.5-0.6
	c-1-0.3-1.8-0.7-2.2-1.3c-0.4-0.6-0.8-1.3-1-2.2l-9-27.2h-50.1l-8.5,26.4c-0.3,1-0.6,1.8-1.1,2.5c-0.4,0.7-1.2,1.2-2.2,1.6
	c-1,0.4-2.4,0.6-4.2,0.8c-1.8,0.1-4.2,0.2-7.2,0.2c-3.2,0-5.6-0.1-7.4-0.3c-1.8-0.2-3-0.7-3.7-1.5c-0.7-0.8-0.9-1.9-0.7-3.4
	c0.2-1.5,0.7-3.4,1.5-5.8L888.5,7.2c0.4-1.2,0.9-2.1,1.4-2.9c0.5-0.7,1.4-1.3,2.6-1.7c1.2-0.4,2.9-0.6,5-0.7c2.1-0.1,5-0.2,8.5-0.2
	c4.1,0,7.3,0.1,9.7,0.2c2.4,0.1,4.3,0.3,5.6,0.7c1.3,0.4,2.3,1,2.9,1.7c0.6,0.8,1.1,1.8,1.5,3.1L967.1,127.4z"/>
<defs>
	<filter id="Adobe_OpacityMaskFilter_2_" filterUnits="userSpaceOnUse" x="979" y="2.4" width="102.1" height="135.8">
		<feColorMatrix  type="matrix" values="1 0 0 0 0  0 1 0 0 0  0 0 1 0 0  0 0 0 1 0"/>
	</filter>
</defs>
<mask maskUnits="userSpaceOnUse" x="979" y="2.4" width="102.1" height="135.8" id="mask-6_1_">
	<g class="st6">
		<polygon id="path-5_1_" class="st1" points="979,2.4 1081.1,2.4 1081.1,138.2 979,138.2 		"/>
	</g>
</mask>
<path id="Fill-17" class="st7" d="M1081.1,13.7c0,2-0.1,3.7-0.3,5.2c-0.2,1.4-0.4,2.6-0.8,3.4c-0.3,0.9-0.8,1.5-1.3,1.9
	c-0.5,0.4-1.1,0.6-1.7,0.6h-33.4v109c0,0.7-0.2,1.3-0.7,1.9c-0.4,0.6-1.2,1-2.2,1.4c-1,0.3-2.4,0.6-4.2,0.8
	c-1.8,0.2-3.9,0.3-6.5,0.3s-4.8-0.1-6.6-0.3c-1.8-0.2-3.1-0.5-4.2-0.8c-1-0.4-1.8-0.8-2.2-1.4c-0.4-0.6-0.7-1.2-0.7-1.9v-109H983
	c-0.7,0-1.3-0.2-1.8-0.6c-0.5-0.4-0.9-1.1-1.2-1.9c-0.3-0.9-0.6-2-0.8-3.4c-0.2-1.4-0.3-3.2-0.3-5.2c0-2.1,0.1-3.9,0.3-5.3
	c0.2-1.5,0.4-2.6,0.8-3.5c0.3-0.9,0.8-1.5,1.2-1.9c0.5-0.4,1.1-0.6,1.8-0.6h94.1c0.6,0,1.2,0.2,1.7,0.6c0.5,0.4,0.9,1,1.3,1.9
	c0.3,0.9,0.6,2,0.8,3.5C1081.1,9.8,1081.1,11.6,1081.1,13.7"/>
</svg>
