<svg enable-background="new 0 0 1081.8 140" viewBox="0 0 1081.8 140" xmlns="http://www.w3.org/2000/svg" xmlns:xlink="http://www.w3.org/1999/xlink"><mask id="a" height="135.8" maskUnits="userSpaceOnUse" width="91.4" x="0" y="2.4"><path clip-rule="evenodd" d="m0 2.4h91.4v135.8h-91.4z" fill="#fff" fill-rule="evenodd"/></mask><mask id="b" height="140" maskUnits="userSpaceOnUse" width="126.4" x="494.6" y="0"><path clip-rule="evenodd" d="m494.6 0h126.4v140h-126.4z" fill="#fff" fill-rule="evenodd"/></mask><mask id="c" height="135.8" maskUnits="userSpaceOnUse" width="102.1" x="979" y="2.4"><path clip-rule="evenodd" d="m979 2.4h102.1v135.8h-102.1z" fill="#fff" fill-rule="evenodd"/></mask><g clip-rule="evenodd" fill="#ff2400" fill-rule="evenodd"><path d="m63 45.4c0-4.7-.8-8.6-2.5-11.7s-3.7-5.3-6.1-6.8-4.9-2.4-7.6-2.8c-2.6-.4-5.4-.6-8.2-.6h-11.5v45.9h12.2c4.3 0 8-.6 10.9-1.8s5.3-2.8 7.2-5c1.9-2.1 3.3-4.7 4.2-7.6 1-2.9 1.4-6.1 1.4-9.6m28.4-1.9c0 7.6-1.2 14.3-3.5 20.2s-5.7 10.8-10.2 14.8-10 7.1-16.5 9.1c-6.5 2.1-14.2 3.1-23 3.1h-11.1v43.2c0 .7-.2 1.3-.7 1.9-.4.6-1.2 1-2.2 1.4s-2.4.6-4.1.8-3.9.3-6.6.3c-2.6 0-4.8-.1-6.6-.3s-3.1-.5-4.2-.8c-1-.3-1.8-.8-2.2-1.4-.4-.6-.6-1.2-.6-1.9v-121.7c0-3.3.8-5.7 2.5-7.4 1.7-1.6 3.9-2.5 6.7-2.5h31.5c3.2 0 6.2.1 9 .4 2.9.3 6.4.8 10.3 1.6 4 .8 8 2.3 12.1 4.4 4.1 2.2 7.6 4.9 10.5 8.2s5.1 7.2 6.6 11.6c1.6 4.5 2.3 9.5 2.3 15" mask="url(#a)"/><path d="m168.3 28.2h-.1l-18.9 57.5h37.9zm61.3 99.2c.8 2.5 1.3 4.5 1.5 6s-.1 2.6-.8 3.3c-.8.7-2.1 1.2-4 1.4s-4.6.3-7.9.3c-3.5 0-6.2-.1-8.2-.2s-3.5-.3-4.5-.6-1.8-.7-2.2-1.3-.8-1.3-1-2.2l-9-27.2h-50.1l-8.5 26.4c-.3 1-.6 1.8-1.1 2.5-.4.7-1.2 1.2-2.2 1.6s-2.4.6-4.2.8c-1.8.1-4.2.2-7.2.2-3.2 0-5.6-.1-7.4-.3s-3-.7-3.7-1.5-.9-1.9-.7-3.4.7-3.4 1.5-5.8l41.1-120.2c.4-1.2.9-2.1 1.4-2.9.5-.7 1.4-1.3 2.6-1.7s2.9-.6 5-.7 5-.2 8.5-.2c4.1 0 7.3.1 9.7.2s4.3.3 5.6.7 2.3 1 2.9 1.7c.6.8 1.1 1.8 1.5 3.1z"/><path d="m310.8 86.3v47.5c0 .7-.2 1.3-.7 1.9-.4.6-1.2 1-2.2 1.4s-2.4.6-4.2.8-3.9.3-6.5.3c-2.7 0-4.9-.1-6.6-.3s-3.1-.5-4.2-.8-1.8-.8-2.2-1.4-.6-1.2-.6-1.9v-47.5l-36.6-73.7c-1.3-2.6-2.1-4.6-2.5-6s-.2-2.5.6-3.2 2.3-1.2 4.4-1.4 5.1-.3 8.9-.3c3.2 0 5.7.1 7.6.2s3.4.4 4.5.8 1.9.9 2.4 1.5 1 1.4 1.5 2.4l14.9 33.2c1.4 3.2 2.9 6.6 4.3 10.1s2.8 7.3 4.3 11.2h.2c1.3-3.8 2.6-7.4 4-11 1.4-3.5 2.7-6.9 4-10.1l14.7-33c.3-1.1.8-2 1.3-2.7s1.3-1.2 2.3-1.6 2.4-.7 4.2-.8 4.2-.2 7.1-.2c3.9 0 7 .1 9.1.3 2.2.2 3.6.6 4.4 1.4.8.7 1 1.8.6 3.3s-1.2 3.4-2.5 6z"/><path d="m475.8 13.7c0 2-.1 3.7-.3 5.2-.2 1.4-.4 2.6-.8 3.4-.3.9-.8 1.5-1.3 1.9s-1.1.6-1.7.6h-33.4v109c0 .7-.2 1.3-.7 1.9-.4.6-1.2 1-2.2 1.4-1 .3-2.4.6-4.2.8s-3.9.3-6.5.3-4.8-.1-6.6-.3-3.1-.5-4.2-.8c-1-.4-1.8-.8-2.2-1.4s-.7-1.2-.7-1.9v-109h-33.4c-.7 0-1.3-.2-1.8-.6s-.9-1.1-1.2-1.9c-.3-.9-.6-2-.8-3.4s-.3-3.2-.3-5.2c0-2.1.1-3.9.3-5.3.2-1.5.4-2.6.8-3.5.3-.9.8-1.5 1.2-1.9.5-.4 1.1-.6 1.8-.6h94.1c.6 0 1.2.2 1.7.6s.9 1 1.3 1.9c.3.9.6 2 .8 3.5.2 1.4.3 3.2.3 5.3"/><path d="m592.5 69.9c0-7.1-.5-13.6-1.7-19.4-1.1-5.8-3-10.8-5.6-14.9-2.7-4.1-6.2-7.3-10.6-9.6s-9.9-3.4-16.5-3.4c-6.7 0-12.2 1.3-16.7 3.8s-8.1 5.9-10.8 10.2-4.7 9.2-5.8 14.9-1.7 11.7-1.7 18c0 7.4.6 14 1.7 19.9s3 10.9 5.6 15.1 6.1 7.4 10.5 9.6 9.9 3.3 16.6 3.3 12.2-1.3 16.7-3.8 8.1-5.9 10.8-10.2c2.8-4.3 4.7-9.3 5.8-15.1s1.7-11.9 1.7-18.4m28.5-1.5c0 11.2-1.4 21.2-4.1 30.1-2.8 8.8-6.8 16.4-12.3 22.5-5.4 6.2-12.2 10.9-20.2 14.1s-17.3 4.9-27.8 4.9c-10.4 0-19.4-1.4-27.2-4.1-7.7-2.8-14.2-6.9-19.3-12.6-5.2-5.6-9-12.8-11.6-21.5s-3.9-19-3.9-30.9c0-10.9 1.4-20.8 4.1-29.5 2.8-8.7 6.8-16.2 12.3-22.3 5.4-6.1 12.2-10.8 20.2-14.1s17.3-4.9 27.9-4.9c10.1 0 19 1.4 26.8 4.1 7.7 2.7 14.2 6.9 19.4 12.5s9.1 12.8 11.8 21.4c2.5 8.5 3.9 18.6 3.9 30.3" mask="url(#b)"/><path d="m812.6 133.8c0 .7-.2 1.3-.6 1.9s-1.1 1-2.1 1.4-2.3.6-4 .8-3.8.3-6.3.3-4.5-.1-6.2-.3-3-.5-3.9-.8c-1-.3-1.6-.8-2.1-1.4-.4-.6-.6-1.2-.6-1.9v-110h-.2l-38.6 109.9c-.3.9-.7 1.7-1.3 2.2-.6.6-1.5 1.1-2.5 1.4-1.1.3-2.4.6-4.1.7s-3.6.2-6 .2c-2.3 0-4.3-.1-6-.3-1.6-.2-3-.5-4.1-.8-1.1-.4-1.9-.9-2.5-1.4-.6-.6-1-1.2-1.2-2l-37.4-109.9h-.2v110c0 .7-.2 1.3-.6 1.9s-1.1 1-2.1 1.4-2.4.6-4 .8-3.7.3-6.2.3-4.5-.1-6.2-.3-3-.5-4-.8-1.7-.8-2.1-1.4-.6-1.2-.6-1.9v-120.4c0-3.6.9-6.3 2.8-8.1 1.9-1.9 4.3-2.8 7.4-2.8h17.9c3.2 0 5.9.3 8.1.8 2.3.5 4.2 1.4 5.9 2.6s3 2.8 4.1 4.8 2.1 4.4 2.9 7.4l28.9 80.5h.4l29.9-80.3c.9-2.9 1.9-5.4 2.9-7.4 1.1-2 2.3-3.7 3.7-4.9s3.1-2.1 5-2.7c1.9-.5 4.2-.8 6.7-.8h18.3c1.9 0 3.5.2 4.8.7s2.4 1.2 3.3 2.1 1.5 2.1 2 3.4.7 2.9.7 4.6z"/><path d="m905.8 28.2h-.1l-18.9 57.5h37.9zm61.3 99.2c.8 2.5 1.3 4.5 1.5 6s-.1 2.6-.8 3.3c-.8.7-2.1 1.2-4 1.4s-4.6.3-7.9.3c-3.5 0-6.2-.1-8.2-.2s-3.5-.3-4.5-.6-1.8-.7-2.2-1.3-.8-1.3-1-2.2l-9-27.2h-50.1l-8.5 26.4c-.3 1-.6 1.8-1.1 2.5-.4.7-1.2 1.2-2.2 1.6s-2.4.6-4.2.8c-1.8.1-4.2.2-7.2.2-3.2 0-5.6-.1-7.4-.3s-3-.7-3.7-1.5-.9-1.9-.7-3.4.7-3.4 1.5-5.8l41.1-120.2c.4-1.2.9-2.1 1.4-2.9.5-.7 1.4-1.3 2.6-1.7s2.9-.6 5-.7 5-.2 8.5-.2c4.1 0 7.3.1 9.7.2s4.3.3 5.6.7 2.3 1 2.9 1.7c.6.8 1.1 1.8 1.5 3.1z"/><path d="m1081.1 13.7c0 2-.1 3.7-.3 5.2-.2 1.4-.4 2.6-.8 3.4-.3.9-.8 1.5-1.3 1.9s-1.1.6-1.7.6h-33.4v109c0 .7-.2 1.3-.7 1.9-.4.6-1.2 1-2.2 1.4-1 .3-2.4.6-4.2.8s-3.9.3-6.5.3-4.8-.1-6.6-.3-3.1-.5-4.2-.8c-1-.4-1.8-.8-2.2-1.4s-.7-1.2-.7-1.9v-109h-33.3c-.7 0-1.3-.2-1.8-.6s-.9-1.1-1.2-1.9c-.3-.9-.6-2-.8-3.4s-.3-3.2-.3-5.2c0-2.1.1-3.9.3-5.3.2-1.5.4-2.6.8-3.5.3-.9.8-1.5 1.2-1.9.5-.4 1.1-.6 1.8-.6h94.1c.6 0 1.2.2 1.7.6s.9 1 1.3 1.9c.3.9.6 2 .8 3.5.2 1.4.2 3.2.2 5.3" mask="url(#c)"/></g></svg>