<?xml version="1.0" encoding="utf-8"?>
<!-- Generator: Adobe Illustrator 23.0.0, SVG Export Plug-In . SVG Version: 6.00 Build 0)  -->
<svg version="1.1" id="Layer_1" xmlns="http://www.w3.org/2000/svg" xmlns:xlink="http://www.w3.org/1999/xlink" x="0px" y="0px"
	 viewBox="0 0 57.6 54.8" style="enable-background:new 0 0 57.6 54.8;" xml:space="preserve">
<style type="text/css">
	.st0{fill:#3588C9;}
</style>
<g>
	<path class="st0" d="M27.8,43.8c-0.2,0-0.3,0-0.5,0c-9,0-16.4-7.4-16.4-16.4S18.4,11,27.4,11s16.4,7.4,16.4,16.4
		c0,1.1-0.1,2.1-0.3,3.1l8.7,8.7c1.7-3.6,2.7-7.6,2.7-11.8C54.8,12.3,42.5,0,27.4,0S0,12.3,0,27.4s12.3,27.4,27.4,27.4
		c3.4,0,6.7-0.6,9.7-1.8L27.8,43.8z"/>
	<g>
		<path class="st0" d="M33.4,30.8c-2.6,0-5.2,1-7.1,3l-1.1,1.1l17,17c2,2,4.6,3,7.1,3c2.6,0,5.2-1,7.1-3l1.1-1.1l-17-17
			C38.6,31.7,36,30.8,33.4,30.8L33.4,30.8z"/>
	</g>
</g>
</svg>
