<svg enable-background="new 0 0 144 41" viewBox="0 0 144 41" xmlns="http://www.w3.org/2000/svg" xmlns:xlink="http://www.w3.org/1999/xlink"><linearGradient id="a" gradientUnits="userSpaceOnUse" x1="0" x2="144" y1="20.5" y2="20.5"><stop offset="0" stop-color="#2a4a95"/><stop offset="1" stop-color="#79bf84"/></linearGradient><path clip-rule="evenodd" d="m120.1 16.1c.4-1.6 1.2-2.6 2.6-3 .2.5.8.9 1.4.9s1.2-.4 1.4-1c1.3.2 2.2.9 2.7 1.8.2.4.4.8.4 1.3-.6.2-1 .8-1 1.4 0 .5.3 1 .7 1.2-.1.2-.2.4-.4.6-.5.6-1.2 1.3-2.3 2-.3-.2-.6-.4-1-.4-.8 0-1.5.7-1.5 1.5 0 .2 0 .4.1.6-1.6 1.2-2.7 2.2-3.4 3.1-.2.3-.4.6-.5.8-.1 0-.1 0-.2 0-.8 0-1.5.7-1.5 1.5s.7 1.5 1.5 1.5c.7 0 1.2-.4 1.4-1h7.2c.2.6.8 1 1.4 1 .8 0 1.5-.7 1.5-1.5s-.8-1.4-1.6-1.4c-.7 0-1.2.4-1.4 1h-7.2c-.1-.3-.2-.5-.5-.6.1-.2.3-.4.4-.6.6-.9 1.7-1.8 3.3-3 .2.2.5.2.8.2.8 0 1.5-.7 1.5-1.5 0-.1 0-.2 0-.3 1.2-.9 2-1.6 2.5-2.3.2-.3.4-.6.6-.9.8 0 1.5-.7 1.5-1.5 0-.7-.4-1.2-1-1.4-.1-.6-.3-1.2-.6-1.7-.7-1.2-1.8-2-3.5-2.3-.2-.6-.8-1.1-1.4-1.1-.7 0-1.4.5-1.5 1.2-1.8.5-3 1.8-3.4 3.8-.7.2-1.2.8-1.2 1.5 0 .8.7 1.5 1.5 1.5s1.5-.7 1.5-1.5c.1-.6-.3-1.2-.8-1.4zm3.9-16.1c11 0 20 9.2 20 20.5s-9 20.5-20 20.5-20-9.2-20-20.5 9-20.5 20-20.5zm5 29.1c-.3 0-.6-.3-.6-.6s.3-.6.6-.6.6.3.6.6-.3.6-.6.6zm-10 0c-.3 0-.6-.3-.6-.6s.3-.6.6-.6.6.3.6.6-.3.6-.6.6zm5.5-6c-.3 0-.6-.3-.6-.6s.3-.6.6-.6.6.3.6.6-.3.6-.6.6zm4.5-5c-.3 0-.6-.3-.6-.6s.3-.6.6-.6.6.3.6.6-.3.6-.6.6zm-5-5c-.3 0-.6-.3-.6-.6s.3-.6.6-.6.6.3.6.6-.3.6-.6.6zm-4.5 5c-.3 0-.6-.3-.6-.6s.3-.6.6-.6.6.3.6.6-.3.6-.6.6zm-36-4.2h3.4v2.5h.1c.7-1.7 2.4-2.9 4.2-2.9.3 0 .6.1.8.1v3.5c-.3-.1-.9-.1-1.3-.1-2.6 0-3.6 2-3.6 4.4v6.1h-3.6zm-11.6 7.7c.1 2.4 1.2 3.4 3.2 3.4 1.4 0 2.6-.9 2.8-1.8h3.2c-1 3.2-3.2 4.6-6.1 4.6-4.1 0-6.7-2.9-6.7-7.2 0-4.1 2.7-7.2 6.7-7.2 4.5 0 6.6 3.9 6.4 8.1h-9.5zm5.9-2.3c-.3-1.9-1.1-2.9-2.9-2.9-2.3 0-2.9 1.8-3 2.9zm-23.9-10.6h3.6v7.1h.1c.9-1.5 2.5-2.3 3.8-2.3 3.8 0 4.8 2.2 4.8 5.6v8.4h-3.6v-7.7c0-2.2-.6-3.3-2.3-3.3-2 0-2.8 1.1-2.8 3.9v7.1h-3.6zm-4.3 5.2h2.6v2.5h-2.6v6.7c0 1.3.3 1.6 1.5 1.6.4 0 .7 0 1.1-.1v2.9c-.6.1-1.4.1-2.1.1-2.2 0-4.1-.5-4.1-3.2v-8h-2.2v-2.5h2.2v-4h3.6zm-16.2 7.7c.1 2.4 1.2 3.4 3.2 3.4 1.4 0 2.6-.9 2.8-1.8h3.2c-1 3.2-3.2 4.6-6.1 4.6-4.1 0-6.7-2.9-6.7-7.2 0-4.1 2.7-7.2 6.7-7.2 4.5 0 6.6 3.9 6.4 8.1h-9.5zm5.9-2.3c-.3-1.9-1.1-2.9-2.9-2.9-2.3 0-2.9 1.8-3 2.9zm-11.8 7.4c0 2.2-.8 6-6.8 6-2.6 0-5.6-1.3-5.8-4.4h3.6c.3 1.4 1.4 1.9 2.7 1.9 2 0 2.9-1.4 2.9-3.4v-1.8h-.1c-.8 1.4-2.4 2.1-3.9 2.1-3.9 0-5.6-3.1-5.6-6.8 0-3.5 2-6.7 5.6-6.7 1.7 0 3 .6 3.9 2.2h.1v-1.8h3.4zm-6.4-10.3c-2 0-2.9 1.8-2.9 3.9 0 1.9.7 4.1 2.9 4.1 2.1 0 3.1-1.8 3.1-3.8-.1-2.2-.8-4.2-3.1-4.2zm-20.7-.2c-.1-4.2 2.2-7.5 6.4-7.5 3.2 0 6.1 2.2 6.1 5.8 0 2.8-1.4 4.3-3.2 5.6s-3.8 2.3-5.1 4.2h8.4v3.2h-13c0-4.3 2.5-6.1 5.6-8.2 1.6-1.1 3.7-2.2 3.7-4.5 0-1.7-1.1-2.8-2.7-2.8-2.1 0-2.8 2.3-2.8 4.2z" fill="url(#a)" fill-rule="evenodd"/></svg>