<?xml version="1.0" encoding="utf-8"?>
<!-- Generator: Adobe Illustrator 23.0.6, SVG Export Plug-In . SVG Version: 6.00 Build 0)  -->
<svg version="1.1" id="Layer_1" xmlns="http://www.w3.org/2000/svg" xmlns:xlink="http://www.w3.org/1999/xlink" x="0px" y="0px"
	 viewBox="0 0 144 41" style="enable-background:new 0 0 144 41;" xml:space="preserve">
<style type="text/css">
	.st0{fill-rule:evenodd;clip-rule:evenodd;fill:url(#SVGID_1_);}
</style>
<linearGradient id="SVGID_1_" gradientUnits="userSpaceOnUse" x1="0" y1="20.5" x2="144" y2="20.5">
	<stop  offset="0" style="stop-color:#2A4A95"/>
	<stop  offset="1" style="stop-color:#79BF84"/>
</linearGradient>
<path class="st0" d="M120.1,16.1c0.4-1.6,1.2-2.6,2.6-3c0.2,0.5,0.8,0.9,1.4,0.9c0.6,0,1.2-0.4,1.4-1c1.3,0.2,2.2,0.9,2.7,1.8
	c0.2,0.4,0.4,0.8,0.4,1.3c-0.6,0.2-1,0.8-1,1.4c0,0.5,0.3,1,0.7,1.2c-0.1,0.2-0.2,0.4-0.4,0.6c-0.5,0.6-1.2,1.3-2.3,2
	c-0.3-0.2-0.6-0.4-1-0.4c-0.8,0-1.5,0.7-1.5,1.5c0,0.2,0,0.4,0.1,0.6c-1.6,1.2-2.7,2.2-3.4,3.1c-0.2,0.3-0.4,0.6-0.5,0.8
	c-0.1,0-0.1,0-0.2,0c-0.8,0-1.5,0.7-1.5,1.5s0.7,1.5,1.5,1.5c0.7,0,1.2-0.4,1.4-1h7.2c0.2,0.6,0.8,1,1.4,1c0.8,0,1.5-0.7,1.5-1.5
	S129.8,27,129,27c-0.7,0-1.2,0.4-1.4,1h-7.2c-0.1-0.3-0.2-0.5-0.5-0.6c0.1-0.2,0.3-0.4,0.4-0.6c0.6-0.9,1.7-1.8,3.3-3
	c0.2,0.2,0.5,0.2,0.8,0.2c0.8,0,1.5-0.7,1.5-1.5c0-0.1,0-0.2,0-0.3c1.2-0.9,2-1.6,2.5-2.3c0.2-0.3,0.4-0.6,0.6-0.9
	c0.8,0,1.5-0.7,1.5-1.5c0-0.7-0.4-1.2-1-1.4c-0.1-0.6-0.3-1.2-0.6-1.7c-0.7-1.2-1.8-2-3.5-2.3c-0.2-0.6-0.8-1.1-1.4-1.1
	c-0.7,0-1.4,0.5-1.5,1.2c-1.8,0.5-3,1.8-3.4,3.8c-0.7,0.2-1.2,0.8-1.2,1.5c0,0.8,0.7,1.5,1.5,1.5s1.5-0.7,1.5-1.5
	C121,16.9,120.6,16.3,120.1,16.1z M124,0c11,0,20,9.2,20,20.5S135,41,124,41c-11,0-20-9.2-20-20.5S113,0,124,0z M129,29.1
	c-0.3,0-0.6-0.3-0.6-0.6s0.3-0.6,0.6-0.6s0.6,0.3,0.6,0.6S129.3,29.1,129,29.1z M119,29.1c-0.3,0-0.6-0.3-0.6-0.6s0.3-0.6,0.6-0.6
	s0.6,0.3,0.6,0.6S119.3,29.1,119,29.1z M124.5,23.1c-0.3,0-0.6-0.3-0.6-0.6s0.3-0.6,0.6-0.6s0.6,0.3,0.6,0.6S124.8,23.1,124.5,23.1z
	 M129,18.1c-0.3,0-0.6-0.3-0.6-0.6s0.3-0.6,0.6-0.6s0.6,0.3,0.6,0.6S129.3,18.1,129,18.1z M124,13.1c-0.3,0-0.6-0.3-0.6-0.6
	s0.3-0.6,0.6-0.6s0.6,0.3,0.6,0.6S124.3,13.1,124,13.1z M119.5,18.1c-0.3,0-0.6-0.3-0.6-0.6s0.3-0.6,0.6-0.6s0.6,0.3,0.6,0.6
	S119.8,18.1,119.5,18.1z M83.5,13.9h3.4v2.5H87c0.7-1.7,2.4-2.9,4.2-2.9c0.3,0,0.6,0.1,0.8,0.1v3.5c-0.3-0.1-0.9-0.1-1.3-0.1
	c-2.6,0-3.6,2-3.6,4.4v6.1h-3.6V13.9z M71.9,21.6c0.1,2.4,1.2,3.4,3.2,3.4c1.4,0,2.6-0.9,2.8-1.8h3.2c-1,3.2-3.2,4.6-6.1,4.6
	c-4.1,0-6.7-2.9-6.7-7.2c0-4.1,2.7-7.2,6.7-7.2c4.5,0,6.6,3.9,6.4,8.1H71.9z M77.8,19.3c-0.3-1.9-1.1-2.9-2.9-2.9
	c-2.3,0-2.9,1.8-3,2.9H77.8z M53.9,8.7h3.6v7.1h0.1c0.9-1.5,2.5-2.3,3.8-2.3c3.8,0,4.8,2.2,4.8,5.6v8.4h-3.6v-7.7
	c0-2.2-0.6-3.3-2.3-3.3c-2,0-2.8,1.1-2.8,3.9v7.1h-3.6V8.7z M49.6,13.9h2.6v2.5h-2.6v6.7c0,1.3,0.3,1.6,1.5,1.6c0.4,0,0.7,0,1.1-0.1
	v2.9c-0.6,0.1-1.4,0.1-2.1,0.1c-2.2,0-4.1-0.5-4.1-3.2v-8h-2.2v-2.5H46V9.9h3.6V13.9z M33.4,21.6c0.1,2.4,1.2,3.4,3.2,3.4
	c1.4,0,2.6-0.9,2.8-1.8h3.2c-1,3.2-3.2,4.6-6.1,4.6c-4.1,0-6.7-2.9-6.7-7.2c0-4.1,2.7-7.2,6.7-7.2c4.5,0,6.6,3.9,6.4,8.1H33.4z
	 M39.3,19.3c-0.3-1.9-1.1-2.9-2.9-2.9c-2.3,0-2.9,1.8-3,2.9H39.3z M27.5,26.7c0,2.2-0.8,6-6.8,6c-2.6,0-5.6-1.3-5.8-4.4h3.6
	c0.3,1.4,1.4,1.9,2.7,1.9c2,0,2.9-1.4,2.9-3.4V25h-0.1c-0.8,1.4-2.4,2.1-3.9,2.1c-3.9,0-5.6-3.1-5.6-6.8c0-3.5,2-6.7,5.6-6.7
	c1.7,0,3,0.6,3.9,2.2h0.1v-1.8h3.4V26.7z M21.1,16.4c-2,0-2.9,1.8-2.9,3.9c0,1.9,0.7,4.1,2.9,4.1c2.1,0,3.1-1.8,3.1-3.8
	C24.1,18.4,23.4,16.4,21.1,16.4z M0.4,16.2C0.3,12,2.6,8.7,6.8,8.7c3.2,0,6.1,2.2,6.1,5.8c0,2.8-1.4,4.3-3.2,5.6
	c-1.8,1.3-3.8,2.3-5.1,4.2H13v3.2H0c0-4.3,2.5-6.1,5.6-8.2c1.6-1.1,3.7-2.2,3.7-4.5c0-1.7-1.1-2.8-2.7-2.8c-2.1,0-2.8,2.3-2.8,4.2
	H0.4z"/>
</svg>
