<svg id="Dash_Logo" data-name="Dash Logo" xmlns="http://www.w3.org/2000/svg" viewBox="0 0 1000 500"><defs><style>.cls-1{fill:#2075bc;}</style></defs><title>Artboard 1</title><polygon id="H" class="cls-1" points="811.07 195.71 797.4 237.4 724.18 237.4 737.86 195.71 698.89 195.71 663.36 303.78 702.33 303.78 715.98 262.09 789.2 262.09 775.54 303.78 814.49 303.78 850 195.71 811.07 195.71"/><path id="S" class="cls-1" d="M656.51,245.61a19.27,19.27,0,0,0-6.82-6.12,21.32,21.32,0,0,0-9.59-2.09H554.65l4.79-15H671.62l8.88-26.72H556.09a30.4,30.4,0,0,0-11,2.11A34.7,34.7,0,0,0,534.25,204c-2.84,2.66-6.16,5.47-8.31,8.88a43.07,43.07,0,0,0-6.08,10.95L516.47,234a52.73,52.73,0,0,0-1.4,11c.62,3.42,1.37,6.77,2.77,8.89a18.41,18.41,0,0,0,6.8,6.15,21.79,21.79,0,0,0,9.57,2.67h85.46l-4.79,14.35H502.7l-8.84,26.73H618.23a30.34,30.34,0,0,0,11-2.12,34.7,34.7,0,0,0,10.85-6.15c2.82-2.67,6.16-5.47,8.29-8.89a42.12,42.12,0,0,0,6.08-10.94l3.41-10.22a30.74,30.74,0,0,0,1.37-11C658.63,251.08,657.9,247.75,656.51,245.61Z"/><path id="A" class="cls-1" d="M503.38,212.18c-.61-3.42-1.36-6.15-3.34-8.28a14,14,0,0,0-6.23-6.1,21,21,0,0,0-9.57-2.09H386.56a30.5,30.5,0,0,0-11,2.11A35.14,35.14,0,0,0,364.68,204c-2.82,2.66-6.15,5.47-8.3,8.88a42.46,42.46,0,0,0-6.08,10.95l-26,80h39l26.66-81.35h73.82l-8.14,23.86H403.65l-8.2,25.29h51.93l-10.3,32.2h38.35l26.65-80.73A31,31,0,0,0,503.38,212.18Z"/><path id="D" class="cls-1" d="M333.24,212.86A19.68,19.68,0,0,0,330.5,204a12.74,12.74,0,0,0-6.82-6.16,19.61,19.61,0,0,0-9.57-2.11H189.68l-8.88,26.72H293.52l-17.77,54.62H163l-8.88,26.73h125a33,33,0,0,0,10.94-2.12A82.4,82.4,0,0,0,301,294.92,53.73,53.73,0,0,0,309.9,286a60.45,60.45,0,0,0,5.5-10.33l16.47-51.87A20.92,20.92,0,0,0,333.24,212.86Z"/><polygon id="_-" data-name="-" class="cls-1" points="225.23 237.4 158.85 237.4 150 262.09 216.96 262.09 225.23 237.4"/></svg>