<svg id="Layer_1" data-name="Layer 1" xmlns="http://www.w3.org/2000/svg" xmlns:xlink="http://www.w3.org/1999/xlink" viewBox="0 0 484.07 128"><defs><style>.cls-1{fill:none;}.cls-2{clip-path:url(#clip-path);}.cls-3{fill:#fff;}</style><clipPath id="clip-path"><rect class="cls-1" width="484.07" height="128"/></clipPath></defs><title>Artboard 1</title><g class="cls-2"><path class="cls-3" d="M72,61.93l2.51-10.45H20.35c-14.41,0-16.48,9.39-17.84,15.07C.74,74,0,77,0,77H54.12C68.53,77,70.6,67.61,72,61.93"/><path class="cls-3" d="M102,0H44.59L39.91,26.6H90.64c28.13,0,35.84,9.25,30.83,37.4s-15.8,37.4-43.93,37.4H26.74L22.05,128H79.47c43.93,0,67.43-20,75.14-64S145.94,0,102,0"/><path class="cls-3" d="M287.55,63.24c-3.28,18.5,5.59,29.29,24.08,29.29H335c3.85,0,5.78,2.32,5,6.17a6.81,6.81,0,0,1-7.13,6.17h-49l-4,23.13h55.36c18.49,0,31-10.79,34.29-29.3s-5.59-29.29-24.09-29.29H322c-3.85,0-5.78-2.32-5-6.17a6.81,6.81,0,0,1,7.13-6.17H371l4.24-23.13H322c-18.49,0-31.21,10.79-34.48,29.3"/><path class="cls-3" d="M166.39,81c-5.39,30.46,8.29,47,38.73,47h53.95l16.57-94.07H221.69c-30.44,0-50.09,16.57-55.3,47m73.8-23.9-8.29,47.8H218c-16.57,0-22.74-7.32-19.65-23.9,2.89-16.58,11.37-23.9,27.94-23.9Z"/><path class="cls-3" d="M450.53,33.93H427.14l6-33.93H401.91L379.36,128h31.21L422.9,57.83h15.35c10.79,0,15.17,4.63,13.43,15.42L442.05,128h31.21l9.64-54.75c4.81-27.37-5-39.32-32.37-39.32"/></g></svg>