<svg xmlns="http://www.w3.org/2000/svg"><g fill="#2075bc"><path d="m661.07 0-13.67 41.69h-73.22l13.68-41.69h-38.97l-35.53 108.07h38.97l13.65-41.68h73.22l-13.66 41.68h38.95l35.51-108.07z"/><path d="m506.51 49.9a19.37 19.37 0 0 0 -6.82-6.12 21.31 21.31 0 0 0 -9.59-2.08h-85.45l4.79-15h112.18l8.88-26.7h-124.41a30.2 30.2 0 0 0 -11 2.12 34.68 34.68 0 0 0 -10.85 6.15c-2.84 2.67-6.16 5.47-8.31 8.89a43.19 43.19 0 0 0 -6.08 10.94l-3.39 10.22a52.81 52.81 0 0 0 -1.4 11c.62 3.41 1.37 6.76 2.77 8.88a18.44 18.44 0 0 0 6.8 6.16 21.78 21.78 0 0 0 9.58 2.64h85.46l-4.79 14.36h-112.18l-8.84 26.72h124.37a30.54 30.54 0 0 0 11-2.11 34.93 34.93 0 0 0 10.85-6.16c2.82-2.66 6.16-5.47 8.29-8.88a42.17 42.17 0 0 0 6.08-11l3.41-10.22a30.74 30.74 0 0 0 1.37-11c-.6-3.34-1.33-6.66-2.72-8.81z"/><path d="m353.38 16.47c-.61-3.42-1.36-6.15-3.34-8.27a13.88 13.88 0 0 0 -6.23-6.1 21 21 0 0 0 -9.57-2.1h-97.68a30.3 30.3 0 0 0 -11 2.12 35.11 35.11 0 0 0 -10.87 6.15c-2.82 2.67-6.15 5.47-8.3 8.89a42.58 42.58 0 0 0 -6.09 10.94l-26 80h39l26.66-81.34h73.82l-8.14 23.85h-51.99l-8.2 25.3h51.93l-10.3 32.19h38.35l26.65-80.73a30.94 30.94 0 0 0 1.3-10.9z"/><path d="m183.24 17.16a19.72 19.72 0 0 0 -2.74-8.89 12.72 12.72 0 0 0 -6.82-6.15 19.5 19.5 0 0 0 -9.57-2.12h-124.43l-8.88 26.73h112.72l-17.77 54.62h-112.75l-8.86 26.72h125a33.25 33.25 0 0 0 10.96-2.07 83.55 83.55 0 0 0 10.9-6.79 53.73 53.73 0 0 0 8.86-8.91 60.45 60.45 0 0 0 5.54-10.3l16.47-51.9a20.87 20.87 0 0 0 1.37-10.94z"/><path d="m75.23 41.69h-66.38l-8.85 24.7h66.96z"/></g></svg>